<?xml version="1.0" encoding="utf-8"?>
<!-- Generator: Adobe Illustrator 22.1.0, SVG Export Plug-In . SVG Version: 6.00 Build 0)  -->
<svg version="1.1" id="Calque_1" xmlns="http://www.w3.org/2000/svg" xmlns:xlink="http://www.w3.org/1999/xlink" x="0px" y="0px"
	 viewBox="0 0 595.3 595.3" style="enable-background:new 0 0 595.3 595.3;" xml:space="preserve">
<style type="text/css">
	.st0{fill:#FFFFFF;stroke:#FFFFFF;stroke-width:10;stroke-miterlimit:10;}
	.st1{fill:none;stroke:#FFFFFF;stroke-width:10;stroke-miterlimit:10;}
	.st2{fill:#FFFFFF;}
	.st3{fill:none;}
	.st4{fill:#FFFFFF;stroke:#FFFFFF;stroke-width:4;stroke-miterlimit:10;}
	.st5{fill:#FFFFFF;stroke:#000000;stroke-width:8;stroke-miterlimit:10;}
	.st6{fill:#FFFFFF;stroke:#FFFFFF;stroke-width:8;stroke-miterlimit:10;}
	.st7{fill:none;stroke:#FFFFFF;stroke-width:8;stroke-miterlimit:10;}
	.st8{fill:#706F6F;stroke:#FFFFFF;stroke-width:0.75;stroke-miterlimit:10;}
	.st9{opacity:0.99;}
</style>
<line class="st0" x1="192.7" y1="451.2" x2="236.6" y2="451.2"/>
<line class="st1" x1="112.6" y1="448.8" x2="161" y2="448.8"/>
<line class="st0" x1="337.7" y1="509" x2="389.2" y2="509"/>
<g>
	<path class="st2" d="M123.6,542.8c0.1,2.6,0.1,4.8,0,6.7c-0.1,1.9-0.3,3.5-0.7,4.8c-0.4,1.3-0.9,2.2-1.7,2.8s-1.7,0.9-2.9,0.9
		c-1.2,0-2.2-0.3-2.9-0.8c-0.7-0.6-1.3-1.4-1.7-2.6c-0.4-1.2-0.6-2.8-0.7-4.7c-0.1-1.9-0.2-4.3-0.1-7h3.1c0,1.8,0,3.5,0,5
		c0,1.5,0.1,2.8,0.3,3.9s0.4,1.9,0.7,2.5c0.3,0.6,0.8,0.9,1.3,0.8c0.2,0,0.5-0.1,0.7-0.2c0.2-0.1,0.4-0.3,0.6-0.6
		c0.2-0.3,0.4-0.7,0.5-1.3c0.1-0.5,0.3-1.3,0.3-2.2s0.1-2,0.1-3.4c0-1.3,0-2.9-0.1-4.8H123.6z"/>
	<path class="st2" d="M134.3,558.2c0-0.5,0-1,0-1.6c0-0.6,0-1.2,0-1.8c0-0.6-0.1-1.2-0.2-1.8s-0.2-1.1-0.4-1.5
		c-0.2-0.5-0.4-0.8-0.7-1.1s-0.7-0.5-1.2-0.5c-0.7-0.1-1.4,0-2,0.4c-0.6,0.3-1.1,0.8-1.5,1.4v6.5h-2.9v-10.8h2.9v0.7
		c0.4-0.2,0.9-0.4,1.5-0.7c0.6-0.2,1.2-0.3,1.8-0.4c1.2,0,2.2,0.2,3,0.7c0.8,0.5,1.4,1.3,1.8,2.2c0.4,1,0.7,2.1,0.9,3.5
		c0.1,1.4,0.2,2.9,0.1,4.6H134.3z"/>
	<path class="st2" d="M154.4,558.2c0-0.5,0-1.1,0-2c0-0.8,0-1.7,0-2.7c0-1-0.1-1.9-0.1-2.9c-0.1-1-0.2-1.9-0.4-2.6
		c-0.2-0.8-0.5-1.4-0.9-1.8c-0.4-0.4-0.9-0.6-1.4-0.6s-1,0.1-1.5,0.5c-0.5,0.3-1,0.8-1.4,1.3l-0.2,10.9h-2.9l0.2-15.2h2.9v0.7
		c0.9-0.5,1.8-0.8,2.7-0.9c0.8-0.1,1.6,0,2.3,0.3c0.7,0.3,1.3,0.8,1.8,1.4c0.5,0.6,0.9,1.4,1.2,2.4c0.4,1.2,0.6,2.7,0.7,4.6
		c0.1,1.9,0.1,4.1,0.1,6.7H154.4z"/>
	<path class="st2" d="M165.3,547.2c1,0,1.9,0.1,2.6,0.5c0.7,0.3,1.3,0.7,1.8,1.2s0.8,1.1,1,1.8c0.2,0.7,0.3,1.3,0.3,2
		c0,0.7-0.2,1.4-0.4,2c-0.3,0.7-0.7,1.3-1.2,1.8c-0.5,0.5-1.1,0.9-1.8,1.3c-0.7,0.3-1.5,0.5-2.5,0.5c-1,0-1.8-0.2-2.5-0.5
		c-0.7-0.3-1.3-0.7-1.8-1.2s-0.8-1.1-1.1-1.8c-0.2-0.7-0.3-1.3-0.3-2c0-0.7,0.1-1.4,0.4-2c0.3-0.7,0.6-1.3,1.1-1.8
		c0.5-0.5,1.1-0.9,1.9-1.3C163.5,547.4,164.3,547.2,165.3,547.2z M165.3,549.8c-0.6,0-1.1,0.1-1.5,0.3s-0.7,0.5-1,0.8
		c-0.2,0.3-0.4,0.7-0.5,1.1c-0.1,0.4-0.1,0.8-0.1,1.2c0,0.3,0.1,0.7,0.2,1c0.1,0.3,0.3,0.6,0.6,0.8c0.3,0.2,0.6,0.4,0.9,0.6
		c0.4,0.1,0.8,0.2,1.3,0.2c0.4,0,0.8-0.1,1.2-0.3c0.3-0.2,0.6-0.4,0.9-0.6s0.4-0.5,0.5-0.8s0.2-0.6,0.2-1c0-0.4,0-0.8-0.1-1.1
		c-0.1-0.4-0.3-0.7-0.5-1c-0.2-0.3-0.5-0.5-0.9-0.7C166.1,549.9,165.7,549.8,165.3,549.8z"/>
	<path class="st2" d="M180.5,557.2c-0.2,0.1-0.4,0.2-0.6,0.4s-0.5,0.2-0.8,0.3c-0.3,0.1-0.6,0.2-0.9,0.2c-0.3,0.1-0.6,0.1-0.9,0
		c-1-0.1-1.8-0.3-2.4-0.8s-1.1-1.1-1.4-1.9c-0.3-0.9-0.5-2-0.6-3.3c-0.1-1.3-0.1-2.9,0-4.7h2.8c0,1.7,0,3.1,0.1,4.2s0.2,1.9,0.4,2.4
		c0.2,0.6,0.4,1,0.7,1.1c0.3,0.2,0.6,0.3,1,0.3c0.3,0,0.7-0.1,1-0.3s0.5-0.6,0.8-1.2c0.2-0.6,0.4-1.4,0.5-2.4c0.1-1,0.2-2.4,0.1-4.1
		h2.9v0h0l0,10.7h-2.8L180.5,557.2z"/>
	<path class="st2" d="M192.7,558.2h-3.1l-4.8-10.1l2.7-1l3.7,7.7l3.7-7.8l2.7,1L192.7,558.2z"/>
	<path class="st2" d="M209.5,556.8c-0.8,0.5-1.7,0.8-2.6,1.1c-0.9,0.3-1.8,0.4-2.7,0.4c-0.9,0-1.7,0-2.5-0.2
		c-0.8-0.2-1.5-0.5-2.1-0.9c-0.6-0.4-1.1-1-1.4-1.6c-0.4-0.7-0.5-1.4-0.6-2.4c0-0.7,0.1-1.4,0.3-2c0.2-0.7,0.5-1.3,1-1.9
		c0.4-0.6,1-1,1.7-1.4c0.7-0.4,1.5-0.6,2.4-0.8c0.6-0.1,1.4,0,2.2,0.1c0.8,0.1,1.5,0.4,2.2,0.9s1.2,1.1,1.5,2c0.4,0.9,0.5,2,0.3,3.4
		l-8.6,0c0,0.5,0.3,1,0.8,1.4s1.1,0.7,1.8,0.8c0.7,0.1,1.6,0.1,2.5-0.1c0.9-0.2,1.9-0.6,2.8-1.2L209.5,556.8z M206.3,551.2
		c-0.1-0.6-0.3-1-0.8-1.3s-1-0.4-1.5-0.5c-0.6,0-1.1,0.1-1.7,0.4c-0.6,0.3-1,0.7-1.2,1.3L206.3,551.2z"/>
	<path class="st2" d="M220.8,556.1c-0.6,0.6-1.2,1-1.9,1.3s-1.5,0.5-2.2,0.6c-0.7,0.1-1.5,0-2.2-0.2c-0.7-0.2-1.3-0.5-1.9-0.9
		c-0.6-0.4-1-1-1.3-1.7s-0.5-1.5-0.5-2.5c0-0.9,0.2-1.7,0.5-2.4c0.3-0.7,0.8-1.3,1.4-1.8s1.2-0.8,1.9-1.1c0.7-0.2,1.4-0.4,2.2-0.3
		c0.7,0,1.5,0.2,2.2,0.5c0.7,0.3,1.4,0.7,1.9,1.3v-1.8h3l0,11h-3V556.1z M220.8,551.7c-0.8-0.8-1.6-1.3-2.4-1.6s-1.6-0.3-2.3-0.2
		c-0.7,0.1-1.3,0.4-1.7,0.9c-0.5,0.5-0.7,1.1-0.7,1.8c0,0.6,0.2,1.2,0.6,1.7s0.9,0.9,1.6,1c0.6,0.2,1.4,0.1,2.3-0.2s1.8-0.9,2.7-1.8
		V551.7z"/>
	<path class="st2" d="M233.4,557.2c-0.2,0.1-0.4,0.2-0.6,0.4s-0.5,0.2-0.8,0.3c-0.3,0.1-0.6,0.2-0.9,0.2c-0.3,0.1-0.6,0.1-0.9,0
		c-1-0.1-1.8-0.3-2.4-0.8s-1.1-1.1-1.4-1.9c-0.3-0.9-0.5-2-0.6-3.3c-0.1-1.3-0.1-2.9,0-4.7h2.8c0,1.7,0,3.1,0.1,4.2s0.2,1.9,0.4,2.4
		c0.2,0.6,0.4,1,0.7,1.1c0.3,0.2,0.6,0.3,1,0.3c0.3,0,0.7-0.1,1-0.3s0.5-0.6,0.8-1.2c0.2-0.6,0.4-1.4,0.5-2.4c0.1-1,0.2-2.4,0.1-4.1
		h2.9v0h0l0,10.7h-2.8L233.4,557.2z"/>
	<path class="st2" d="M252,558.2c0-0.3,0-0.7,0-1.2c0-0.6,0-1.2,0-1.8s0-1.4,0-2.1s0-1.5,0-2.1s0-1.3-0.1-1.9c0-0.6-0.1-1-0.1-1.3
		c-0.1-0.8-0.4-1.4-0.7-1.7c-0.4-0.3-0.8-0.5-1.2-0.4s-0.9,0.2-1.4,0.6c-0.5,0.3-0.9,0.7-1.2,1.2v10.8h-2.9v-15.1h2.9v0.7
		c0.4-0.2,0.9-0.4,1.5-0.7c0.6-0.2,1.2-0.3,1.8-0.4c0.9,0,1.6,0.1,2.2,0.4c0.6,0.3,1,0.7,1.4,1.2c0.2-0.1,0.4-0.3,0.6-0.5
		c0.3-0.2,0.5-0.3,0.9-0.5c0.3-0.2,0.7-0.3,1.1-0.4c0.4-0.1,0.8-0.2,1.3-0.2c0.8,0,1.5,0.2,2,0.6c0.5,0.4,1,0.9,1.3,1.6
		c0.3,0.7,0.6,1.5,0.7,2.4c0.2,0.9,0.3,2,0.3,3.1s0.1,2.3,0,3.6c0,1.3-0.1,2.6-0.1,4h-3.1c0-0.3,0-0.7,0-1.2c0-0.5,0-1.1,0-1.8
		c0-0.7,0-1.4,0-2.1c0-0.7,0-1.4,0-2.1c0-0.7,0-1.3-0.1-1.8c0-0.6-0.1-1-0.1-1.3c-0.1-0.8-0.4-1.3-0.7-1.6c-0.3-0.3-0.7-0.5-1.1-0.5
		s-0.8,0.1-1.3,0.4c-0.4,0.3-0.8,0.6-1.2,1.1c0,0.3,0.1,0.7,0.1,1.3c0,0.5,0,1.1,0,1.8c0,0.7,0,1.4,0,2.1c0,0.7,0,1.5,0,2.2
		c0,0.7,0,1.4,0,2c0,0.6,0,1.2,0,1.6H252z"/>
	<path class="st2" d="M270.5,547.2c1,0,1.9,0.1,2.6,0.5c0.7,0.3,1.3,0.7,1.8,1.2s0.8,1.1,1,1.8c0.2,0.7,0.3,1.3,0.3,2
		c0,0.7-0.2,1.4-0.4,2c-0.3,0.7-0.7,1.3-1.2,1.8c-0.5,0.5-1.1,0.9-1.8,1.3c-0.7,0.3-1.5,0.5-2.5,0.5c-1,0-1.8-0.2-2.5-0.5
		c-0.7-0.3-1.3-0.7-1.8-1.2s-0.8-1.1-1.1-1.8c-0.2-0.7-0.3-1.3-0.3-2c0-0.7,0.1-1.4,0.4-2c0.3-0.7,0.6-1.3,1.1-1.8
		c0.5-0.5,1.1-0.9,1.9-1.3C268.6,547.4,269.5,547.2,270.5,547.2z M270.4,549.8c-0.6,0-1.1,0.1-1.5,0.3s-0.7,0.5-1,0.8
		c-0.2,0.3-0.4,0.7-0.5,1.1c-0.1,0.4-0.1,0.8-0.1,1.2c0,0.3,0.1,0.7,0.2,1c0.1,0.3,0.3,0.6,0.6,0.8c0.3,0.2,0.6,0.4,0.9,0.6
		c0.4,0.1,0.8,0.2,1.3,0.2c0.4,0,0.8-0.1,1.2-0.3c0.3-0.2,0.6-0.4,0.9-0.6s0.4-0.5,0.5-0.8s0.2-0.6,0.2-1c0-0.4,0-0.8-0.1-1.1
		c-0.1-0.4-0.3-0.7-0.5-1c-0.2-0.3-0.5-0.5-0.9-0.7C271.3,549.9,270.9,549.8,270.4,549.8z"/>
	<path class="st2" d="M286.9,558.2c0-0.5,0-1,0-1.6c0-0.6,0-1.2,0-1.8c0-0.6-0.1-1.2-0.2-1.8s-0.2-1.1-0.4-1.5
		c-0.2-0.5-0.4-0.8-0.7-1.1s-0.7-0.5-1.2-0.5c-0.7-0.1-1.4,0-2,0.4c-0.6,0.3-1.1,0.8-1.5,1.4v6.5H278v-10.8h2.9v0.7
		c0.4-0.2,0.9-0.4,1.5-0.7c0.6-0.2,1.2-0.3,1.8-0.4c1.2,0,2.2,0.2,3,0.7c0.8,0.5,1.4,1.3,1.8,2.2c0.4,1,0.7,2.1,0.9,3.5
		c0.1,1.4,0.2,2.9,0.1,4.6H286.9z"/>
	<path class="st2" d="M301.5,556.3c-0.6,0.6-1.4,1.1-2.2,1.4c-0.8,0.3-1.7,0.5-2.5,0.5c-0.8,0-1.6-0.1-2.2-0.4s-1.2-0.6-1.6-1.1
		s-0.8-1-1-1.6c-0.2-0.6-0.4-1.2-0.4-1.9c0-0.7,0-1.3,0.2-2c0.2-0.7,0.5-1.2,1-1.8c0.4-0.5,1-1,1.7-1.4c0.7-0.4,1.5-0.6,2.4-0.7
		c0.5-0.1,1,0,1.5,0c0.5,0.1,0.9,0.2,1.3,0.4s0.8,0.4,1.1,0.6c0.3,0.2,0.6,0.4,0.8,0.6v-6.3h3.1l0,15.4h-3.1V556.3z M301.5,552.3
		c-0.4-0.7-0.9-1.2-1.4-1.6c-0.5-0.4-1.1-0.6-1.6-0.8c-0.6-0.1-1.1-0.1-1.6,0c-0.5,0.1-1,0.3-1.4,0.6s-0.7,0.7-0.9,1.2
		c-0.2,0.5-0.3,1-0.2,1.7c0,0.4,0.2,0.7,0.4,1c0.2,0.3,0.6,0.6,0.9,0.8c0.4,0.2,0.8,0.3,1.3,0.4c0.5,0.1,1,0,1.5-0.1
		c0.5-0.1,1-0.4,1.5-0.7c0.5-0.4,1-0.9,1.4-1.5L301.5,552.3z"/>
	<path class="st2" d="M318.1,556.8c-0.8,0.5-1.7,0.8-2.6,1.1c-0.9,0.3-1.8,0.4-2.7,0.4c-0.9,0-1.7,0-2.5-0.2
		c-0.8-0.2-1.5-0.5-2.1-0.9c-0.6-0.4-1.1-1-1.4-1.6c-0.4-0.7-0.5-1.4-0.6-2.4c0-0.7,0.1-1.4,0.3-2c0.2-0.7,0.5-1.3,1-1.9
		c0.4-0.6,1-1,1.7-1.4c0.7-0.4,1.5-0.6,2.4-0.8c0.6-0.1,1.4,0,2.2,0.1c0.8,0.1,1.5,0.4,2.2,0.9s1.2,1.1,1.5,2c0.4,0.9,0.5,2,0.3,3.4
		l-8.6,0c0,0.5,0.3,1,0.8,1.4s1.1,0.7,1.8,0.8c0.7,0.1,1.6,0.1,2.5-0.1c0.9-0.2,1.9-0.6,2.8-1.2L318.1,556.8z M315,551.2
		c-0.1-0.6-0.3-1-0.8-1.3s-1-0.4-1.5-0.5c-0.6,0-1.1,0.1-1.7,0.4c-0.6,0.3-1,0.7-1.2,1.3L315,551.2z"/>
	<path class="st2" d="M332.3,542.7h3.1l6.3,14.4l-2.7,1l-1.8-4.2h-6.5l-1.7,4.3l-2.7-1L332.3,542.7z M331.5,539.7l1.4-1.5l3.4,2.6
		l-1.4,1.5L331.5,539.7z M331.7,551.3h4.4l-2.2-5.3L331.7,551.3z"/>
	<path class="st2" d="M361.6,555.4c-0.1,0.2-0.4,0.5-0.7,0.8c-0.3,0.3-0.7,0.6-1.1,0.9c-0.4,0.3-0.9,0.6-1.4,0.8
		c-0.5,0.2-1.1,0.3-1.6,0.4c-0.6,0-1.1,0-1.7-0.1c-0.5-0.1-1.1-0.3-1.5-0.6c-0.5-0.2-0.9-0.5-1.3-0.9c-0.4-0.3-0.8-0.7-1.1-1.1
		c-0.5-0.6-0.8-1.3-1.1-2.1s-0.4-1.6-0.4-2.5c0-1,0.1-2,0.3-3c0.3-1,0.7-1.8,1.3-2.6c0.6-0.8,1.4-1.4,2.3-1.9c0.9-0.5,2-0.7,3.3-0.7
		c1,0,1.9,0.2,2.7,0.6c0.7,0.4,1.4,0.9,1.9,1.6l-2.5,1.5c-0.3-0.3-0.6-0.6-0.9-0.7c-0.3-0.2-0.8-0.3-1.2-0.3c-0.7,0-1.3,0.2-1.8,0.5
		s-1,0.7-1.3,1.3c-0.4,0.5-0.6,1.1-0.8,1.8s-0.3,1.3-0.2,2c0,0.6,0.2,1.2,0.4,1.8c0.2,0.6,0.5,1.1,0.9,1.5c0.4,0.4,0.8,0.8,1.3,1.1
		c0.5,0.3,1,0.4,1.6,0.3c0.2,0,0.4-0.1,0.7-0.2c0.3-0.1,0.5-0.2,0.8-0.4c0.3-0.2,0.5-0.4,0.8-0.6c0.2-0.2,0.4-0.4,0.5-0.7
		L361.6,555.4z"/>
	<path class="st2" d="M371.9,558.2c0-0.5,0-1,0-1.6c0-0.6,0-1.2,0-1.8c0-0.6-0.1-1.2-0.2-1.8s-0.2-1.1-0.4-1.5
		c-0.2-0.5-0.4-0.8-0.7-1.1s-0.7-0.5-1.2-0.5c-0.7-0.1-1.4,0-2,0.4c-0.6,0.3-1.1,0.8-1.5,1.4v6.5H363l0-15.5h2.9v5.4
		c0.4-0.2,0.9-0.4,1.5-0.7c0.6-0.2,1.2-0.3,1.8-0.4c1.2,0,2.2,0.2,3,0.7c0.8,0.5,1.4,1.3,1.8,2.2c0.4,1,0.7,2.1,0.9,3.5
		c0.1,1.4,0.2,2.9,0.1,4.6H371.9z"/>
	<path class="st2" d="M386.5,556.1c-0.6,0.6-1.2,1-1.9,1.3s-1.5,0.5-2.2,0.6c-0.7,0.1-1.5,0-2.2-0.2c-0.7-0.2-1.3-0.5-1.9-0.9
		c-0.6-0.4-1-1-1.3-1.7s-0.5-1.5-0.5-2.5c0-0.9,0.2-1.7,0.5-2.4c0.3-0.7,0.8-1.3,1.4-1.8s1.2-0.8,1.9-1.1c0.7-0.2,1.4-0.4,2.2-0.3
		c0.7,0,1.5,0.2,2.2,0.5c0.7,0.3,1.4,0.7,1.9,1.3v-1.8h3l0,11h-3V556.1z M386.5,551.7c-0.8-0.8-1.6-1.3-2.4-1.6s-1.6-0.3-2.3-0.2
		c-0.7,0.1-1.3,0.4-1.7,0.9c-0.5,0.5-0.7,1.1-0.7,1.8c0,0.6,0.2,1.2,0.6,1.7s0.9,0.9,1.6,1c0.6,0.2,1.4,0.1,2.3-0.2s1.8-0.9,2.7-1.8
		V551.7z"/>
	<path class="st2" d="M401.3,547.2h2.9l0,13.2h3.1v2.4h-6v-6.3c-1.7,0.8-3.1,1.3-4.4,1.5c-1.3,0.1-2.3,0-3.2-0.3
		c-0.9-0.3-1.5-0.9-2-1.6c-0.4-0.7-0.7-1.5-0.7-2.3c0-0.7,0-1.3,0.1-2c0.1-0.6,0.3-1.2,0.6-1.7c0.3-0.5,0.7-1,1.2-1.3
		c0.5-0.4,1.2-0.6,1.9-0.7c0.8-0.1,1.7-0.1,2.7,0.1c1,0.2,2.2,0.5,3.6,1.1V547.2z M401.3,551.8c-1.3-0.7-2.4-1.1-3.3-1.3
		s-1.7-0.2-2.2,0c-0.6,0.2-1,0.5-1.3,0.9c-0.3,0.4-0.4,0.9-0.4,1.5c0,0.5,0.2,1,0.5,1.4c0.3,0.4,0.8,0.7,1.5,0.8s1.4,0.1,2.3-0.2
		c0.9-0.2,1.9-0.8,2.9-1.6V551.8z"/>
	<path class="st2" d="M413.9,557.2c-0.2,0.1-0.4,0.2-0.6,0.4s-0.5,0.2-0.8,0.3c-0.3,0.1-0.6,0.2-0.9,0.2c-0.3,0.1-0.6,0.1-0.9,0
		c-1-0.1-1.8-0.3-2.4-0.8s-1.1-1.1-1.4-1.9c-0.3-0.9-0.5-2-0.6-3.3c-0.1-1.3-0.1-2.9,0-4.7h2.8c0,1.7,0,3.1,0.1,4.2s0.2,1.9,0.4,2.4
		c0.2,0.6,0.4,1,0.7,1.1c0.3,0.2,0.6,0.3,1,0.3c0.3,0,0.7-0.1,1-0.3s0.5-0.6,0.8-1.2c0.2-0.6,0.4-1.4,0.5-2.4c0.1-1,0.2-2.4,0.1-4.1
		h2.9v0h0l0,10.7h-2.8L413.9,557.2z"/>
	<path class="st2" d="M430,556.8c-0.8,0.5-1.7,0.8-2.6,1.1c-0.9,0.3-1.8,0.4-2.7,0.4c-0.9,0-1.7,0-2.5-0.2c-0.8-0.2-1.5-0.5-2.1-0.9
		c-0.6-0.4-1.1-1-1.4-1.6c-0.4-0.7-0.5-1.4-0.6-2.4c0-0.7,0.1-1.4,0.3-2c0.2-0.7,0.5-1.3,1-1.9c0.4-0.6,1-1,1.7-1.4
		c0.7-0.4,1.5-0.6,2.4-0.8c0.6-0.1,1.4,0,2.2,0.1c0.8,0.1,1.5,0.4,2.2,0.9s1.2,1.1,1.5,2c0.4,0.9,0.5,2,0.3,3.4l-8.6,0
		c0,0.5,0.3,1,0.8,1.4s1.1,0.7,1.8,0.8c0.7,0.1,1.6,0.1,2.5-0.1c0.9-0.2,1.9-0.6,2.8-1.2L430,556.8z M426.9,551.2
		c-0.1-0.6-0.3-1-0.8-1.3s-1-0.4-1.5-0.5c-0.6,0-1.1,0.1-1.7,0.4c-0.6,0.3-1,0.7-1.2,1.3L426.9,551.2z"/>
	<path class="st2" d="M441.1,544.7c0.7-0.5,1.4-0.9,2.2-1.2c0.8-0.3,1.5-0.5,2.3-0.5c0.8-0.1,1.5,0,2.2,0.2c0.7,0.2,1.3,0.5,1.8,0.9
		c0.5,0.4,0.9,1,1.3,1.7c0.3,0.7,0.5,1.5,0.5,2.5c0,0.9-0.2,1.7-0.5,2.4c-0.3,0.7-0.8,1.3-1.3,1.9c-0.5,0.5-1.2,0.9-1.8,1.3
		c-0.7,0.3-1.4,0.5-2.2,0.6c-0.7,0.1-1.5,0-2.3-0.1s-1.5-0.5-2.1-0.9v5h-2.9l0-15.5h2.9V544.7z M441.1,550.2c0.5,0.6,1.2,1,1.9,1.1
		c0.8,0.1,1.5,0.1,2.2-0.1c0.7-0.2,1.4-0.6,1.9-1.1c0.5-0.5,0.8-1.1,0.9-1.9c0-0.6,0-1.1-0.3-1.4c-0.2-0.4-0.5-0.7-0.9-0.9
		s-0.9-0.3-1.4-0.4c-0.5,0-1,0-1.6,0.1c-0.5,0.1-1.1,0.3-1.6,0.6c-0.5,0.3-0.9,0.6-1.3,1.1V550.2z"/>
	<path class="st2" d="M462,556.1c-0.6,0.6-1.2,1-1.9,1.3s-1.5,0.5-2.2,0.6c-0.7,0.1-1.5,0-2.2-0.2c-0.7-0.2-1.3-0.5-1.9-0.9
		c-0.6-0.4-1-1-1.3-1.7s-0.5-1.5-0.5-2.5c0-0.9,0.2-1.7,0.5-2.4c0.3-0.7,0.8-1.3,1.4-1.8s1.2-0.8,1.9-1.1c0.7-0.2,1.4-0.4,2.2-0.3
		c0.7,0,1.5,0.2,2.2,0.5c0.7,0.3,1.4,0.7,1.9,1.3v-1.8h3l0,11h-3V556.1z M462,551.7c-0.8-0.8-1.6-1.3-2.4-1.6s-1.6-0.3-2.3-0.2
		c-0.7,0.1-1.3,0.4-1.7,0.9c-0.5,0.5-0.7,1.1-0.7,1.8c0,0.6,0.2,1.2,0.6,1.7s0.9,0.9,1.6,1c0.6,0.2,1.4,0.1,2.3-0.2s1.8-0.9,2.7-1.8
		V551.7z"/>
	<path class="st2" d="M473.3,555.3c0-0.3-0.1-0.6-0.5-0.7c-0.4-0.1-0.8-0.3-1.4-0.4c-0.6-0.1-1.2-0.2-1.8-0.4s-1.2-0.4-1.7-0.7
		s-0.9-0.7-1.1-1.3c-0.2-0.6-0.3-1.3,0-2.2c0.1-0.6,0.4-1,0.8-1.4c0.4-0.4,0.9-0.7,1.4-0.9s1.1-0.3,1.8-0.3c0.6,0,1.3,0.1,1.9,0.3
		c0.6,0.2,1.2,0.6,1.7,1c0.5,0.5,1,1,1.3,1.8l-3,1c-0.1-0.4-0.4-0.8-0.7-1.1s-0.6-0.5-1-0.6s-0.7-0.1-1-0.1
		c-0.3,0.1-0.5,0.2-0.6,0.4c-0.2,0.4-0.3,0.8-0.1,1s0.4,0.5,0.7,0.6c0.3,0.2,0.8,0.3,1.3,0.4c0.5,0.1,1,0.2,1.6,0.3
		c0.5,0.1,1.1,0.2,1.6,0.4c0.5,0.1,1,0.3,1.3,0.6c0.4,0.2,0.6,0.6,0.8,1c0.2,0.4,0.2,0.9,0,1.5c-0.2,0.7-0.5,1.2-1.1,1.6
		c-0.5,0.4-1.2,0.7-1.9,0.9c-0.7,0.2-1.5,0.3-2.3,0.2s-1.5-0.2-2.2-0.5c-0.7-0.3-1.3-0.7-1.7-1.3c-0.5-0.5-0.7-1.2-0.8-2l2.4-0.4
		c0.1,0.6,0.4,1.1,0.9,1.4c0.4,0.3,0.9,0.5,1.3,0.6c0.5,0.1,0.9,0,1.3-0.1C472.9,555.9,473.2,555.7,473.3,555.3z"/>
	<path class="st2" d="M478.5,556.8c0-0.4,0.2-0.7,0.5-1c0.3-0.3,0.7-0.4,1.1-0.4c0.4,0,0.8,0.1,1.1,0.4c0.3,0.3,0.5,0.6,0.5,1
		c0,0.4-0.2,0.7-0.5,1c-0.3,0.3-0.7,0.4-1.1,0.4c-0.4,0-0.8-0.1-1.1-0.4C478.7,557.5,478.5,557.2,478.5,556.8z"/>
</g>
<g>
	<path class="st2" d="M147,444.5l14-1l27.2,69.1l-11.6,5l-7.7-20h-28.4l-7.5,20.5l-11.6-5L147,444.5z M144.9,485h19l-9.7-25.4
		L144.9,485z"/>
	<path class="st2" d="M193.2,518.2v-11.4l27.4-29.4h-26.9v-11.8h44.3v11.8l-28.9,29.4h28.6v11.4H193.2z"/>
	<path class="st2" d="M291.2,443.7v12.7h-18.6l-0.1,61.3H260v-61.3h-17.2v-12.7H291.2z"/>
	<path class="st2" d="M322.9,483.5c-0.8-1.4-1.7-2.6-2.9-3.6c-1.2-1-2.6-1.6-4.2-1.7c-3.1-0.4-6,0.3-8.8,1.9
		c-2.8,1.6-4.9,3.9-6.4,6.9v31.2h-12.7v-51.8h12.7v3.8c1.8-1.1,3.9-2.1,6.2-3c2.3-1,4.9-1.5,7.7-1.6c2.4-0.1,4.6,0.2,6.5,0.7
		c1.9,0.5,3.7,1.3,5.3,2.2c1.6,1,3,2.1,4.4,3.4c1.3,1.3,2.6,2.8,3.8,4.4L322.9,483.5z"/>
	<path class="st2" d="M389.2,490.4c-3.7,2.3-7.5,4-11.4,5.2c-3.9,1.2-7.8,1.9-11.6,2.1c-3.8,0.2-7.4-0.2-10.8-1.1
		c-3.4-0.9-6.4-2.3-9-4.4c-2.6-2-4.7-4.7-6.2-7.8c-1.6-3.2-2.4-6.9-2.4-11.3c-0.1-3.2,0.3-6.5,1.2-9.8c0.9-3.3,2.3-6.3,4.2-9
		c1.9-2.7,4.3-5,7.3-6.9c3-1.9,6.5-3.1,10.5-3.6c2.8-0.4,6-0.2,9.4,0.4c3.5,0.6,6.6,2.1,9.4,4.3c2.8,2.3,5.1,5.5,6.7,9.7
		c1.7,4.2,2.1,9.7,1.4,16.5l-37.5-0.1c0.2,2.5,1.3,4.7,3.3,6.6c2,1.9,4.6,3.1,7.8,3.8c3.2,0.6,6.8,0.5,10.8-0.3
		c4-0.8,8.1-2.7,12.4-5.7L389.2,490.4z M375.5,463.7c-0.3-2.7-1.4-4.8-3.4-6.2c-2-1.4-4.2-2.1-6.7-2.2c-2.5,0-4.9,0.6-7.3,2
		c-2.4,1.4-4.2,3.5-5.3,6.3L375.5,463.7z"/>
	<g>
		<rect x="292.1" y="484.4" class="st3" width="168.1" height="3.3"/>
		<line class="st4" x1="468.6" y1="433.2" x2="451.8" y2="511"/>
		<path class="st2" d="M428.1,474.9l-24.9,7.3l-3.5-12.2l71.5-20.9l3.5,12.2l-26.5,7.8l34.8,22.1l-7.5,10.4l-35.2-22.3l-17.2,37.3
			l-12-5.1L428.1,474.9z"/>
		<path class="st5" d="M447.6,455.1"/>
		<circle class="st6" cx="446.1" cy="441.9" r="4.4"/>
	</g>
</g>
<g>
	<path id="XMLID_5_" class="st7" d="M165.3,392.7c-6.7,0-11.7-6.8-9.5-13.2c0.3-0.8,0.7-1.6,1.1-2.4c1.4-2.6,2.8-5.3,4.2-7.9
		c2.6-4.9,5.2-9.8,7.8-14.8c3.5-6.7,7.1-13.4,10.6-20.1c4.2-8,8.5-16,12.7-24c4.6-8.8,9.3-17.5,13.9-26.3
		c4.8-9.1,9.6-18.1,14.3-27.2c4.7-8.8,9.3-17.7,14-26.5c4.3-8.1,8.6-16.3,12.9-24.4c2.2-4.2,4.4-8.3,6.6-12.5
		c1.5-2.8,2.9-5.6,4.4-8.4c5.5-10.5,8.3-15.7,8.3-15.7c1.6-3,3.2-6.1,4.8-9.1c2.5-4.8,5.9-9.9,11-12.1c1.3-0.5,2.8-0.9,4.2-0.5
		c1.3,0.4,2.3,1.4,3.1,2.4c2.1,2.5,3.5,5.5,4.6,8.5c1.3,3.5,1.6,7.3,2.2,11c0.5,3.2,0.9,6.4,1.8,9.5c0.7,2.3,1.6,5.4,3.8,6.7
		c2.1,1.3,5.2,0.7,7.1-0.8c2.1-1.6,3.5-4,4.9-6.2c1.2-2,2.3-3.9,3.5-5.9c1.1-1.9,2.2-3.9,4-5.2c2.6-1.8,5.9-2.7,9-2.6
		c3.6,0.1,7.1,1.6,8.8,5c0.3,0.7,0.7,1.4,1,2.2c1.7,3.5,3.4,7,5.1,10.6c2.8,5.8,5.6,11.6,8.4,17.4c3.6,7.5,7.2,15,10.8,22.5
		c4.1,8.6,8.3,17.3,12.4,25.9c4.4,9.2,8.8,18.4,13.2,27.5c4.4,9.1,8.8,18.3,13.1,27.4c4.1,8.5,8.2,17,12.2,25.5
		c3.5,7.3,7,14.6,10.5,21.9c2.6,5.5,5.3,11,7.9,16.6c1.5,3.1,3,6.2,4.5,9.4c0.2,0.5,0.5,1,0.7,1.5c2.5,5.4-0.2,12.1-6,13.9
		c-2.2,0.7-4.7,0.5-6.9,0.5c-4,0-8,0-12.1,0c-6.3,0-12.5,0-18.8,0c-8,0-16,0-24,0c-9.2,0-18.5,0-27.7,0c-10,0-20,0-30,0
		c-10.2,0-20.5,0-30.7,0c-10,0-20,0-30,0c-9.3,0-18.6,0-27.8,0c-8.1,0-16.2,0-24.2,0c-6.3,0-12.7,0-19,0c-4.1,0-8.2,0-12.3,0
		C168.1,392.7,166.7,392.7,165.3,392.7z"/>
	<path class="st6" d="M436.9,388.1c0,3.1-4.5,4.9-6.8,5.9c-6,2.5-12.6,3.9-18.9,5.2c-9.5,1.8-19.2,3.1-28.8,4.1
		c-12.2,1.3-24.5,2.2-36.8,2.8c-14.1,0.7-28.2,1.1-42.3,1.1c-14.5,0.1-29-0.1-43.6-0.7c-12.8-0.5-25.6-1.3-38.4-2.4
		c-10.4-0.9-20.7-2.1-31-3.8c-7.2-1.2-14.5-2.6-21.4-4.9c-2.2-0.8-4.5-1.6-6.5-2.8c-1.3-0.7-2.6-1.6-3.4-3c-1.5-2.7,1.5-4.9,3.5-6
		c4.9-2.8,10.7-4.1,16.1-5.4c8.8-2,17.8-3.3,26.7-4.4c11.7-1.4,23.4-2.4,35.1-3.1c13.7-0.9,27.4-1.3,41.2-1.6
		c14.7-0.2,29.4-0.2,44.1,0.3c13.3,0.4,26.6,1,39.8,2c11,0.8,22,1.9,32.9,3.5c8.1,1.2,16.2,2.5,24,4.7c2.7,0.7,5.4,1.6,8,2.7
		c1.7,0.7,3.5,1.6,4.9,2.9C436.1,385.9,436.9,386.9,436.9,388.1z"/>
	<path class="st6" d="M254.5,194.2c-5.4,13.7,3.5,22,2.6,43.2c-0.6,14-2.6,17.5-3.2,32.5c-0.2,5.7-0.1,14,6.4,16.4
		c2.5,0.9,4.3-0.9,5.6-2.8c2.6-3.7,4.2-8,6-12.1c2.8-6.6,5.6-13.2,8.6-19.7c1.6-3.4,2.8-7,4.2-10.5c0.9-2.4,1.8-5.2,3.7-7.1
		c1.1-1.1,2.6-1.5,3.9-0.4c1.7,1.5,2.9,3.9,4.2,5.7c2,2.9,4.1,5.8,6.3,8.5c1.2,1.5,2.5,3.1,4.2,4.1c1.6,1,3.5,0.8,5.2,0.1
		c2.3-0.9,3.6-2.9,4.3-5.2c0.8-2.9,0.8-5.9,0.9-8.8c0.1-2.5,0.1-5.1,1.3-7.3c1-2,3-3.5,5.2-2.4c2,1,2.6,3.8,3.1,5.8
		c0.9,3.2,2.1,6.3,4.3,8.8c1.4,1.6,3,2.5,5.1,2.3c4.1-0.5,5.7-6,6.6-9.4c1.1-4.5,1.7-9.1,2.1-13.6c0.5-5,0.9-10.1,1.3-15.1
		c0.7-8.9,1.2-8.8,1.2-11.5c0-6.7-4.4-17.6-4.4-17.6c-2.4-5.9-3.7-8.9-5.5-10.3c-0.7-0.5-4.2-3-9.1-2.6c-4.9,0.4-8,3.6-9.1,4.7
		c-2.3,2.4-1.6,3.1-5.4,9c-3.8,6-5.7,7-7.3,7.4c-0.4,0.1-2.7,0.7-4.7-0.4c-2.2-1.2-2.9-3.7-3.2-4.9c-2-7.5-2.1-12.9-3.4-18.5
		c-0.8-3.5-2.8-12.1-8.7-14.7c-0.7-0.3-2.4-1-4.3-0.6c-2.9,0.6-4.5,3.5-5.5,5.3c-3.3,5.7-7,11.2-10.1,17c-4.5,8.6-4.4,8.1-6.2,11.7
		C257.2,187.5,255,192.8,254.5,194.2z"/>
	<path class="st8" d="M245.9,374.8"/>
	<g>
		<g>
			<path class="st2" d="M281.6,115.5c-8.2,2.4-17.6-0.5-21.4-8.6c-3.8-8.1,0.3-17.3,7.3-22.2c3.9-2.7,0.2-9.2-3.8-6.5
				c-10,6.9-15.6,19.5-10.6,31.1c5.1,11.7,18.5,16.9,30.4,13.3C288.2,121.4,286.2,114.1,281.6,115.5L281.6,115.5z"/>
		</g>
	</g>
	<g>
		<g>
			<path class="st2" d="M266.3,76.7c-11.1,9.2-28,7.8-38.2-2.1c-10.4-10.1-11.3-26.1-3.7-38.1c2.4-3.8-3.6-7.3-6-3.5
				c-9.6,15-7.7,35.5,5.8,47.5c13.3,11.9,33.3,12.5,47.1,1.2C274.8,78.8,269.8,73.8,266.3,76.7L266.3,76.7z"/>
		</g>
	</g>
	<g class="st9">
		<g>
			<path class="st2" d="M318.7,82.4c16-2,29.8,9.2,32.8,24.8c3.1,16.5-6.6,32.9-21.5,39.8c-4.4,2-0.6,8.5,3.8,6.5
				c18-8.3,28.8-28.7,24.9-48.3c-3.6-18.5-20.9-32.7-40-30.3C314,75.5,313.9,83,318.7,82.4L318.7,82.4z"/>
		</g>
	</g>
	<g>
		<g>
			<path class="st2" d="M325.1,58.6c4.1,0.7,7.9,3.2,8.6,7.6c0.8,5.3-3.9,8.2-8.5,8.9c-4.1,0.6-2.4,6.9,1.7,6.3
				c7.4-1.1,13.9-7,13.4-15c-0.5-7.3-6.5-12.8-13.4-14C322.7,51.6,320.9,57.9,325.1,58.6L325.1,58.6z"/>
		</g>
	</g>
	<g>
		<g>
			<path class="st2" d="M329.9,40.8c3,1,5.6,3.9,4.9,7.3c-0.6,3.1-3.8,4.6-6.7,4.7c-3.2,0.1-3.2,5.1,0,5c5.4-0.1,10.7-3.4,11.7-9
				c1-5.9-3.1-11-8.6-12.8C328.1,35,326.8,39.8,329.9,40.8L329.9,40.8z"/>
		</g>
	</g>
	<g>
		<g>
			<path class="st2" d="M232.2,64.7c-6.2-3.1-7-11.3-2.2-16c2.3-2.3-1.3-5.8-3.5-3.5c-6.9,6.9-5.8,19.3,3.2,23.9
				C232.5,70.4,235.1,66.1,232.2,64.7L232.2,64.7z"/>
		</g>
	</g>
</g>
</svg>
