<?xml version="1.0" encoding="utf-8"?>
<!-- Generator: Adobe Illustrator 22.1.0, SVG Export Plug-In . SVG Version: 6.00 Build 0)  -->
<svg version="1.1" id="Calque_1" xmlns="http://www.w3.org/2000/svg" xmlns:xlink="http://www.w3.org/1999/xlink" x="0px" y="0px"
	 viewBox="0 0 595.3 595.3" style="enable-background:new 0 0 595.3 595.3;" xml:space="preserve">
<style type="text/css">
	.st0{fill:#EA5B0C;}
	.st1{fill:none;}
	.st2{fill:none;stroke:#000000;stroke-width:8;stroke-miterlimit:10;}
	.st3{fill:#9D9D9C;}
	.st4{fill:#706F6F;}
	.st5{fill:#F39200;}
	.st6{fill:#878787;}
	.st7{fill:#575756;}
	.st8{fill:#706F6F;stroke:#000000;stroke-width:0.75;stroke-miterlimit:10;}
	.st9{opacity:0.99;}
</style>
<g>
	<rect x="192.5" y="448.4" width="43.9" height="10"/>
	<rect x="112.4" y="446" width="48.4" height="10"/>
	<g>
		<line class="st0" x1="337.5" y1="511.2" x2="389" y2="511.2"/>
		<rect x="337.5" y="506.2" class="st0" width="51.5" height="10"/>
	</g>
	<g>
		<path d="M123.4,545c0.1,2.6,0.1,4.8,0,6.7c-0.1,1.9-0.3,3.5-0.7,4.8c-0.4,1.3-0.9,2.2-1.7,2.8s-1.7,0.9-2.9,0.9
			c-1.2,0-2.2-0.3-2.9-0.8c-0.7-0.6-1.3-1.4-1.7-2.6c-0.4-1.2-0.6-2.8-0.7-4.7c-0.1-1.9-0.2-4.3-0.1-7h3.1c0,1.8,0,3.5,0,5
			c0,1.5,0.1,2.8,0.3,3.9s0.4,1.9,0.7,2.5c0.3,0.6,0.8,0.9,1.3,0.8c0.2,0,0.5-0.1,0.7-0.2c0.2-0.1,0.4-0.3,0.6-0.6
			c0.2-0.3,0.4-0.7,0.5-1.3c0.1-0.5,0.3-1.3,0.3-2.2s0.1-2,0.1-3.4c0-1.3,0-2.9-0.1-4.8H123.4z"/>
		<path d="M134.1,560.4c0-0.5,0-1,0-1.6c0-0.6,0-1.2,0-1.8c0-0.6-0.1-1.2-0.2-1.8s-0.2-1.1-0.4-1.5c-0.2-0.5-0.4-0.8-0.7-1.1
			s-0.7-0.5-1.2-0.5c-0.7-0.1-1.4,0-2,0.4c-0.6,0.3-1.1,0.8-1.5,1.4v6.5h-2.9v-10.8h2.9v0.7c0.4-0.2,0.9-0.4,1.5-0.7
			c0.6-0.2,1.2-0.3,1.8-0.4c1.2,0,2.2,0.2,3,0.7c0.8,0.5,1.4,1.3,1.8,2.2c0.4,1,0.7,2.1,0.9,3.5c0.1,1.4,0.2,2.9,0.1,4.6H134.1z"/>
		<path d="M154.2,560.4c0-0.5,0-1.1,0-2c0-0.8,0-1.7,0-2.7c0-1-0.1-1.9-0.1-2.9c-0.1-1-0.2-1.9-0.4-2.6c-0.2-0.8-0.5-1.4-0.9-1.8
			c-0.4-0.4-0.9-0.6-1.4-0.6s-1,0.1-1.5,0.5c-0.5,0.3-1,0.8-1.4,1.3l-0.2,10.9h-2.9l0.2-15.2h2.9v0.7c0.9-0.5,1.8-0.8,2.7-0.9
			c0.8-0.1,1.6,0,2.3,0.3c0.7,0.3,1.3,0.8,1.8,1.4c0.5,0.6,0.9,1.4,1.2,2.4c0.4,1.2,0.6,2.7,0.7,4.6c0.1,1.9,0.1,4.1,0.1,6.7H154.2z
			"/>
		<path d="M165.1,549.4c1,0,1.9,0.1,2.6,0.5c0.7,0.3,1.3,0.7,1.8,1.2s0.8,1.1,1,1.8c0.2,0.7,0.3,1.3,0.3,2c0,0.7-0.2,1.4-0.4,2
			c-0.3,0.7-0.7,1.3-1.2,1.8c-0.5,0.5-1.1,0.9-1.8,1.3c-0.7,0.3-1.5,0.5-2.5,0.5c-1,0-1.8-0.2-2.5-0.5c-0.7-0.3-1.3-0.7-1.8-1.2
			s-0.8-1.1-1.1-1.8c-0.2-0.7-0.3-1.3-0.3-2c0-0.7,0.1-1.4,0.4-2c0.3-0.7,0.6-1.3,1.1-1.8c0.5-0.5,1.1-0.9,1.9-1.3
			C163.2,549.6,164.1,549.4,165.1,549.4z M165,552c-0.6,0-1.1,0.1-1.5,0.3s-0.7,0.5-1,0.8c-0.2,0.3-0.4,0.7-0.5,1.1
			c-0.1,0.4-0.1,0.8-0.1,1.2c0,0.3,0.1,0.7,0.2,1c0.1,0.3,0.3,0.6,0.6,0.8c0.3,0.2,0.6,0.4,0.9,0.6c0.4,0.1,0.8,0.2,1.3,0.2
			c0.4,0,0.8-0.1,1.2-0.3c0.3-0.2,0.6-0.4,0.9-0.6s0.4-0.5,0.5-0.8s0.2-0.6,0.2-1c0-0.4,0-0.8-0.1-1.1c-0.1-0.4-0.3-0.7-0.5-1
			c-0.2-0.3-0.5-0.5-0.9-0.7C165.9,552.1,165.5,552,165,552z"/>
		<path d="M180.3,559.4c-0.2,0.1-0.4,0.2-0.6,0.4s-0.5,0.2-0.8,0.3c-0.3,0.1-0.6,0.2-0.9,0.2c-0.3,0.1-0.6,0.1-0.9,0
			c-1-0.1-1.8-0.3-2.4-0.8s-1.1-1.1-1.4-1.9c-0.3-0.9-0.5-2-0.6-3.3c-0.1-1.3-0.1-2.9,0-4.7h2.8c0,1.7,0,3.1,0.1,4.2
			s0.2,1.9,0.4,2.4c0.2,0.6,0.4,1,0.7,1.1c0.3,0.2,0.6,0.3,1,0.3c0.3,0,0.7-0.1,1-0.3s0.5-0.6,0.8-1.2c0.2-0.6,0.4-1.4,0.5-2.4
			c0.1-1,0.2-2.4,0.1-4.1h2.9v0h0l0,10.7h-2.8L180.3,559.4z"/>
		<path d="M192.5,560.4h-3.1l-4.8-10.1l2.7-1l3.7,7.7l3.7-7.8l2.7,1L192.5,560.4z"/>
		<path d="M209.3,559c-0.8,0.5-1.7,0.8-2.6,1.1c-0.9,0.3-1.8,0.4-2.7,0.4c-0.9,0-1.7,0-2.5-0.2c-0.8-0.2-1.5-0.5-2.1-0.9
			c-0.6-0.4-1.1-1-1.4-1.6c-0.4-0.7-0.5-1.4-0.6-2.4c0-0.7,0.1-1.4,0.3-2c0.2-0.7,0.5-1.3,1-1.9c0.4-0.6,1-1,1.7-1.4
			c0.7-0.4,1.5-0.6,2.4-0.8c0.6-0.1,1.4,0,2.2,0.1c0.8,0.1,1.5,0.4,2.2,0.9s1.2,1.1,1.5,2c0.4,0.9,0.5,2,0.3,3.4l-8.6,0
			c0,0.5,0.3,1,0.8,1.4s1.1,0.7,1.8,0.8c0.7,0.1,1.6,0.1,2.5-0.1c0.9-0.2,1.9-0.6,2.8-1.2L209.3,559z M206.1,553.4
			c-0.1-0.6-0.3-1-0.8-1.3s-1-0.4-1.5-0.5c-0.6,0-1.1,0.1-1.7,0.4c-0.6,0.3-1,0.7-1.2,1.3L206.1,553.4z"/>
		<path d="M220.6,558.3c-0.6,0.6-1.2,1-1.9,1.3s-1.5,0.5-2.2,0.6c-0.7,0.1-1.5,0-2.2-0.2c-0.7-0.2-1.3-0.5-1.9-0.9
			c-0.6-0.4-1-1-1.3-1.7s-0.5-1.5-0.5-2.5c0-0.9,0.2-1.7,0.5-2.4c0.3-0.7,0.8-1.3,1.4-1.8s1.2-0.8,1.9-1.1c0.7-0.2,1.4-0.4,2.2-0.3
			c0.7,0,1.5,0.2,2.2,0.5c0.7,0.3,1.4,0.7,1.9,1.3v-1.8h3l0,11h-3V558.3z M220.6,553.9c-0.8-0.8-1.6-1.3-2.4-1.6s-1.6-0.3-2.3-0.2
			c-0.7,0.1-1.3,0.4-1.7,0.9c-0.5,0.5-0.7,1.1-0.7,1.8c0,0.6,0.2,1.2,0.6,1.7s0.9,0.9,1.6,1c0.6,0.2,1.4,0.1,2.3-0.2
			s1.8-0.9,2.7-1.8V553.9z"/>
		<path d="M233.2,559.4c-0.2,0.1-0.4,0.2-0.6,0.4s-0.5,0.2-0.8,0.3c-0.3,0.1-0.6,0.2-0.9,0.2c-0.3,0.1-0.6,0.1-0.9,0
			c-1-0.1-1.8-0.3-2.4-0.8s-1.1-1.1-1.4-1.9c-0.3-0.9-0.5-2-0.6-3.3c-0.1-1.3-0.1-2.9,0-4.7h2.8c0,1.7,0,3.1,0.1,4.2
			s0.2,1.9,0.4,2.4c0.2,0.6,0.4,1,0.7,1.1c0.3,0.2,0.6,0.3,1,0.3c0.3,0,0.7-0.1,1-0.3s0.5-0.6,0.8-1.2c0.2-0.6,0.4-1.4,0.5-2.4
			c0.1-1,0.2-2.4,0.1-4.1h2.9v0h0l0,10.7h-2.8L233.2,559.4z"/>
		<path d="M251.7,560.4c0-0.3,0-0.7,0-1.2c0-0.6,0-1.2,0-1.8s0-1.4,0-2.1s0-1.5,0-2.1s0-1.3-0.1-1.9c0-0.6-0.1-1-0.1-1.3
			c-0.1-0.8-0.4-1.4-0.7-1.7c-0.4-0.3-0.8-0.5-1.2-0.4s-0.9,0.2-1.4,0.6c-0.5,0.3-0.9,0.7-1.2,1.2v10.8h-2.9v-15.1h2.9v0.7
			c0.4-0.2,0.9-0.4,1.5-0.7c0.6-0.2,1.2-0.3,1.8-0.4c0.9,0,1.6,0.1,2.2,0.4c0.6,0.3,1,0.7,1.4,1.2c0.2-0.1,0.4-0.3,0.6-0.5
			c0.3-0.2,0.5-0.3,0.9-0.5c0.3-0.2,0.7-0.3,1.1-0.4c0.4-0.1,0.8-0.2,1.3-0.2c0.8,0,1.5,0.2,2,0.6c0.5,0.4,1,0.9,1.3,1.6
			c0.3,0.7,0.6,1.5,0.7,2.4c0.2,0.9,0.3,2,0.3,3.1s0.1,2.3,0,3.6c0,1.3-0.1,2.6-0.1,4h-3.1c0-0.3,0-0.7,0-1.2c0-0.5,0-1.1,0-1.8
			c0-0.7,0-1.4,0-2.1c0-0.7,0-1.4,0-2.1c0-0.7,0-1.3-0.1-1.8c0-0.6-0.1-1-0.1-1.3c-0.1-0.8-0.4-1.3-0.7-1.6
			c-0.3-0.3-0.7-0.5-1.1-0.5s-0.8,0.1-1.3,0.4c-0.4,0.3-0.8,0.6-1.2,1.1c0,0.3,0.1,0.7,0.1,1.3c0,0.5,0,1.1,0,1.8c0,0.7,0,1.4,0,2.1
			c0,0.7,0,1.5,0,2.2c0,0.7,0,1.4,0,2c0,0.6,0,1.2,0,1.6H251.7z"/>
		<path d="M270.2,549.4c1,0,1.9,0.1,2.6,0.5c0.7,0.3,1.3,0.7,1.8,1.2s0.8,1.1,1,1.8c0.2,0.7,0.3,1.3,0.3,2c0,0.7-0.2,1.4-0.4,2
			c-0.3,0.7-0.7,1.3-1.2,1.8c-0.5,0.5-1.1,0.9-1.8,1.3c-0.7,0.3-1.5,0.5-2.5,0.5c-1,0-1.8-0.2-2.5-0.5c-0.7-0.3-1.3-0.7-1.8-1.2
			s-0.8-1.1-1.1-1.8c-0.2-0.7-0.3-1.3-0.3-2c0-0.7,0.1-1.4,0.4-2c0.3-0.7,0.6-1.3,1.1-1.8c0.5-0.5,1.1-0.9,1.9-1.3
			C268.4,549.6,269.2,549.4,270.2,549.4z M270.2,552c-0.6,0-1.1,0.1-1.5,0.3s-0.7,0.5-1,0.8c-0.2,0.3-0.4,0.7-0.5,1.1
			c-0.1,0.4-0.1,0.8-0.1,1.2c0,0.3,0.1,0.7,0.2,1c0.1,0.3,0.3,0.6,0.6,0.8c0.3,0.2,0.6,0.4,0.9,0.6c0.4,0.1,0.8,0.2,1.3,0.2
			c0.4,0,0.8-0.1,1.2-0.3c0.3-0.2,0.6-0.4,0.9-0.6s0.4-0.5,0.5-0.8s0.2-0.6,0.2-1c0-0.4,0-0.8-0.1-1.1c-0.1-0.4-0.3-0.7-0.5-1
			c-0.2-0.3-0.5-0.5-0.9-0.7C271.1,552.1,270.6,552,270.2,552z"/>
		<path d="M286.7,560.4c0-0.5,0-1,0-1.6c0-0.6,0-1.2,0-1.8c0-0.6-0.1-1.2-0.2-1.8s-0.2-1.1-0.4-1.5c-0.2-0.5-0.4-0.8-0.7-1.1
			s-0.7-0.5-1.2-0.5c-0.7-0.1-1.4,0-2,0.4c-0.6,0.3-1.1,0.8-1.5,1.4v6.5h-2.9v-10.8h2.9v0.7c0.4-0.2,0.9-0.4,1.5-0.7
			c0.6-0.2,1.2-0.3,1.8-0.4c1.2,0,2.2,0.2,3,0.7c0.8,0.5,1.4,1.3,1.8,2.2c0.4,1,0.7,2.1,0.9,3.5c0.1,1.4,0.2,2.9,0.1,4.6H286.7z"/>
		<path d="M301.2,558.5c-0.6,0.6-1.4,1.1-2.2,1.4c-0.8,0.3-1.7,0.5-2.5,0.5c-0.8,0-1.6-0.1-2.2-0.4s-1.2-0.6-1.6-1.1s-0.8-1-1-1.6
			c-0.2-0.6-0.4-1.2-0.4-1.9c0-0.7,0-1.3,0.2-2c0.2-0.7,0.5-1.2,1-1.8c0.4-0.5,1-1,1.7-1.4c0.7-0.4,1.5-0.6,2.4-0.7
			c0.5-0.1,1,0,1.5,0c0.5,0.1,0.9,0.2,1.3,0.4s0.8,0.4,1.1,0.6c0.3,0.2,0.6,0.4,0.8,0.6V545h3.1l0,15.4h-3.1V558.5z M301.3,554.5
			c-0.4-0.7-0.9-1.2-1.4-1.6c-0.5-0.4-1.1-0.6-1.6-0.8c-0.6-0.1-1.1-0.1-1.6,0c-0.5,0.1-1,0.3-1.4,0.6s-0.7,0.7-0.9,1.2
			c-0.2,0.5-0.3,1-0.2,1.7c0,0.4,0.2,0.7,0.4,1c0.2,0.3,0.6,0.6,0.9,0.8c0.4,0.2,0.8,0.3,1.3,0.4c0.5,0.1,1,0,1.5-0.1
			c0.5-0.1,1-0.4,1.5-0.7c0.5-0.4,1-0.9,1.4-1.5L301.3,554.5z"/>
		<path d="M317.9,559c-0.8,0.5-1.7,0.8-2.6,1.1c-0.9,0.3-1.8,0.4-2.7,0.4c-0.9,0-1.7,0-2.5-0.2c-0.8-0.2-1.5-0.5-2.1-0.9
			c-0.6-0.4-1.1-1-1.4-1.6c-0.4-0.7-0.5-1.4-0.6-2.4c0-0.7,0.1-1.4,0.3-2c0.2-0.7,0.5-1.3,1-1.9c0.4-0.6,1-1,1.7-1.4
			c0.7-0.4,1.5-0.6,2.4-0.8c0.6-0.1,1.4,0,2.2,0.1c0.8,0.1,1.5,0.4,2.2,0.9s1.2,1.1,1.5,2c0.4,0.9,0.5,2,0.3,3.4l-8.6,0
			c0,0.5,0.3,1,0.8,1.4s1.1,0.7,1.8,0.8c0.7,0.1,1.6,0.1,2.5-0.1c0.9-0.2,1.9-0.6,2.8-1.2L317.9,559z M314.7,553.4
			c-0.1-0.6-0.3-1-0.8-1.3s-1-0.4-1.5-0.5c-0.6,0-1.1,0.1-1.7,0.4c-0.6,0.3-1,0.7-1.2,1.3L314.7,553.4z"/>
		<path d="M332,544.9h3.1l6.3,14.4l-2.7,1l-1.8-4.2h-6.5l-1.7,4.3l-2.7-1L332,544.9z M331.3,541.9l1.4-1.5l3.4,2.6l-1.4,1.5
			L331.3,541.9z M331.4,553.5h4.4l-2.2-5.3L331.4,553.5z"/>
		<path d="M361.3,557.6c-0.1,0.2-0.4,0.5-0.7,0.8c-0.3,0.3-0.7,0.6-1.1,0.9c-0.4,0.3-0.9,0.6-1.4,0.8c-0.5,0.2-1.1,0.3-1.6,0.4
			c-0.6,0-1.1,0-1.7-0.1c-0.5-0.1-1.1-0.3-1.5-0.6c-0.5-0.2-0.9-0.5-1.3-0.9c-0.4-0.3-0.8-0.7-1.1-1.1c-0.5-0.6-0.8-1.3-1.1-2.1
			s-0.4-1.6-0.4-2.5c0-1,0.1-2,0.3-3c0.3-1,0.7-1.8,1.3-2.6c0.6-0.8,1.4-1.4,2.3-1.9c0.9-0.5,2-0.7,3.3-0.7c1,0,1.9,0.2,2.7,0.6
			c0.7,0.4,1.4,0.9,1.9,1.6l-2.5,1.5c-0.3-0.3-0.6-0.6-0.9-0.7c-0.3-0.2-0.8-0.3-1.2-0.3c-0.7,0-1.3,0.2-1.8,0.5s-1,0.7-1.3,1.3
			c-0.4,0.5-0.6,1.1-0.8,1.8s-0.3,1.3-0.2,2c0,0.6,0.2,1.2,0.4,1.8c0.2,0.6,0.5,1.1,0.9,1.5c0.4,0.4,0.8,0.8,1.3,1.1
			c0.5,0.3,1,0.4,1.6,0.3c0.2,0,0.4-0.1,0.7-0.2c0.3-0.1,0.5-0.2,0.8-0.4c0.3-0.2,0.5-0.4,0.8-0.6c0.2-0.2,0.4-0.4,0.5-0.7
			L361.3,557.6z"/>
		<path d="M371.6,560.4c0-0.5,0-1,0-1.6c0-0.6,0-1.2,0-1.8c0-0.6-0.1-1.2-0.2-1.8s-0.2-1.1-0.4-1.5c-0.2-0.5-0.4-0.8-0.7-1.1
			s-0.7-0.5-1.2-0.5c-0.7-0.1-1.4,0-2,0.4c-0.6,0.3-1.1,0.8-1.5,1.4v6.5h-2.9l0-15.5h2.9v5.4c0.4-0.2,0.9-0.4,1.5-0.7
			c0.6-0.2,1.2-0.3,1.8-0.4c1.2,0,2.2,0.2,3,0.7c0.8,0.5,1.4,1.3,1.8,2.2c0.4,1,0.7,2.1,0.9,3.5c0.1,1.4,0.2,2.9,0.1,4.6H371.6z"/>
		<path d="M386.3,558.3c-0.6,0.6-1.2,1-1.9,1.3s-1.5,0.5-2.2,0.6c-0.7,0.1-1.5,0-2.2-0.2c-0.7-0.2-1.3-0.5-1.9-0.9
			c-0.6-0.4-1-1-1.3-1.7s-0.5-1.5-0.5-2.5c0-0.9,0.2-1.7,0.5-2.4c0.3-0.7,0.8-1.3,1.4-1.8s1.2-0.8,1.9-1.1c0.7-0.2,1.4-0.4,2.2-0.3
			c0.7,0,1.5,0.2,2.2,0.5c0.7,0.3,1.4,0.7,1.9,1.3v-1.8h3l0,11h-3V558.3z M386.3,553.9c-0.8-0.8-1.6-1.3-2.4-1.6s-1.6-0.3-2.3-0.2
			c-0.7,0.1-1.3,0.4-1.7,0.9c-0.5,0.5-0.7,1.1-0.7,1.8c0,0.6,0.2,1.2,0.6,1.7s0.9,0.9,1.6,1c0.6,0.2,1.4,0.1,2.3-0.2
			s1.8-0.9,2.7-1.8V553.9z"/>
		<path d="M401.1,549.4h2.9l0,13.2h3.1v2.4h-6v-6.3c-1.7,0.8-3.1,1.3-4.4,1.5c-1.3,0.1-2.3,0-3.2-0.3c-0.9-0.3-1.5-0.9-2-1.6
			c-0.4-0.7-0.7-1.5-0.7-2.3c0-0.7,0-1.3,0.1-2c0.1-0.6,0.3-1.2,0.6-1.7c0.3-0.5,0.7-1,1.2-1.3c0.5-0.4,1.2-0.6,1.9-0.7
			c0.8-0.1,1.7-0.1,2.7,0.1c1,0.2,2.2,0.5,3.6,1.1V549.4z M401.1,554c-1.3-0.7-2.4-1.1-3.3-1.3s-1.7-0.2-2.2,0
			c-0.6,0.2-1,0.5-1.3,0.9c-0.3,0.4-0.4,0.9-0.4,1.5c0,0.5,0.2,1,0.5,1.4c0.3,0.4,0.8,0.7,1.5,0.8s1.4,0.1,2.3-0.2
			c0.9-0.2,1.9-0.8,2.9-1.6V554z"/>
		<path d="M413.6,559.4c-0.2,0.1-0.4,0.2-0.6,0.4s-0.5,0.2-0.8,0.3c-0.3,0.1-0.6,0.2-0.9,0.2c-0.3,0.1-0.6,0.1-0.9,0
			c-1-0.1-1.8-0.3-2.4-0.8s-1.1-1.1-1.4-1.9c-0.3-0.9-0.5-2-0.6-3.3c-0.1-1.3-0.1-2.9,0-4.7h2.8c0,1.7,0,3.1,0.1,4.2
			s0.2,1.9,0.4,2.4c0.2,0.6,0.4,1,0.7,1.1c0.3,0.2,0.6,0.3,1,0.3c0.3,0,0.7-0.1,1-0.3s0.5-0.6,0.8-1.2c0.2-0.6,0.4-1.4,0.5-2.4
			c0.1-1,0.2-2.4,0.1-4.1h2.9v0h0l0,10.7h-2.8L413.6,559.4z"/>
		<path d="M429.8,559c-0.8,0.5-1.7,0.8-2.6,1.1c-0.9,0.3-1.8,0.4-2.7,0.4c-0.9,0-1.7,0-2.5-0.2c-0.8-0.2-1.5-0.5-2.1-0.9
			c-0.6-0.4-1.1-1-1.4-1.6c-0.4-0.7-0.5-1.4-0.6-2.4c0-0.7,0.1-1.4,0.3-2c0.2-0.7,0.5-1.3,1-1.9c0.4-0.6,1-1,1.7-1.4
			c0.7-0.4,1.5-0.6,2.4-0.8c0.6-0.1,1.4,0,2.2,0.1c0.8,0.1,1.5,0.4,2.2,0.9s1.2,1.1,1.5,2c0.4,0.9,0.5,2,0.3,3.4l-8.6,0
			c0,0.5,0.3,1,0.8,1.4s1.1,0.7,1.8,0.8c0.7,0.1,1.6,0.1,2.5-0.1c0.9-0.2,1.9-0.6,2.8-1.2L429.8,559z M426.6,553.4
			c-0.1-0.6-0.3-1-0.8-1.3s-1-0.4-1.5-0.5c-0.6,0-1.1,0.1-1.7,0.4c-0.6,0.3-1,0.7-1.2,1.3L426.6,553.4z"/>
		<path d="M440.8,546.9c0.7-0.5,1.4-0.9,2.2-1.2c0.8-0.3,1.5-0.5,2.3-0.5c0.8-0.1,1.5,0,2.2,0.2c0.7,0.2,1.3,0.5,1.8,0.9
			c0.5,0.4,0.9,1,1.3,1.7c0.3,0.7,0.5,1.5,0.5,2.5c0,0.9-0.2,1.7-0.5,2.4c-0.3,0.7-0.8,1.3-1.3,1.9c-0.5,0.5-1.2,0.9-1.8,1.3
			c-0.7,0.3-1.4,0.5-2.2,0.6c-0.7,0.1-1.5,0-2.3-0.1s-1.5-0.5-2.1-0.9v5H438l0-15.5h2.9V546.9z M440.8,552.4c0.5,0.6,1.2,1,1.9,1.1
			c0.8,0.1,1.5,0.1,2.2-0.1c0.7-0.2,1.4-0.6,1.9-1.1c0.5-0.5,0.8-1.1,0.9-1.9c0-0.6,0-1.1-0.3-1.4c-0.2-0.4-0.5-0.7-0.9-0.9
			s-0.9-0.3-1.4-0.4c-0.5,0-1,0-1.6,0.1c-0.5,0.1-1.1,0.3-1.6,0.6c-0.5,0.3-0.9,0.6-1.3,1.1V552.4z"/>
		<path d="M461.7,558.3c-0.6,0.6-1.2,1-1.9,1.3s-1.5,0.5-2.2,0.6c-0.7,0.1-1.5,0-2.2-0.2c-0.7-0.2-1.3-0.5-1.9-0.9
			c-0.6-0.4-1-1-1.3-1.7s-0.5-1.5-0.5-2.5c0-0.9,0.2-1.7,0.5-2.4c0.3-0.7,0.8-1.3,1.4-1.8s1.2-0.8,1.9-1.1c0.7-0.2,1.4-0.4,2.2-0.3
			c0.7,0,1.5,0.2,2.2,0.5c0.7,0.3,1.4,0.7,1.9,1.3v-1.8h3l0,11h-3V558.3z M461.7,553.9c-0.8-0.8-1.6-1.3-2.4-1.6s-1.6-0.3-2.3-0.2
			c-0.7,0.1-1.3,0.4-1.7,0.9c-0.5,0.5-0.7,1.1-0.7,1.8c0,0.6,0.2,1.2,0.6,1.7s0.9,0.9,1.6,1c0.6,0.2,1.4,0.1,2.3-0.2
			s1.8-0.9,2.7-1.8V553.9z"/>
		<path d="M473,557.5c0-0.3-0.1-0.6-0.5-0.7c-0.4-0.1-0.8-0.3-1.4-0.4c-0.6-0.1-1.2-0.2-1.8-0.4s-1.2-0.4-1.7-0.7s-0.9-0.7-1.1-1.3
			c-0.2-0.6-0.3-1.3,0-2.2c0.1-0.6,0.4-1,0.8-1.4c0.4-0.4,0.9-0.7,1.4-0.9s1.1-0.3,1.8-0.3c0.6,0,1.3,0.1,1.9,0.3
			c0.6,0.2,1.2,0.6,1.7,1c0.5,0.5,1,1,1.3,1.8l-3,1c-0.1-0.4-0.4-0.8-0.7-1.1s-0.6-0.5-1-0.6s-0.7-0.1-1-0.1
			c-0.3,0.1-0.5,0.2-0.6,0.4c-0.2,0.4-0.3,0.8-0.1,1s0.4,0.5,0.7,0.6c0.3,0.2,0.8,0.3,1.3,0.4c0.5,0.1,1,0.2,1.6,0.3
			c0.5,0.1,1.1,0.2,1.6,0.4c0.5,0.1,1,0.3,1.3,0.6c0.4,0.2,0.6,0.6,0.8,1c0.2,0.4,0.2,0.9,0,1.5c-0.2,0.7-0.5,1.2-1.1,1.6
			c-0.5,0.4-1.2,0.7-1.9,0.9c-0.7,0.2-1.5,0.3-2.3,0.2s-1.5-0.2-2.2-0.5c-0.7-0.3-1.3-0.7-1.7-1.3c-0.5-0.5-0.7-1.2-0.8-2l2.4-0.4
			c0.1,0.6,0.4,1.1,0.9,1.4c0.4,0.3,0.9,0.5,1.3,0.6c0.5,0.1,0.9,0,1.3-0.1C472.7,558.1,472.9,557.9,473,557.5z"/>
		<path d="M478.3,559c0-0.4,0.2-0.7,0.5-1c0.3-0.3,0.7-0.4,1.1-0.4c0.4,0,0.8,0.1,1.1,0.4c0.3,0.3,0.5,0.6,0.5,1
			c0,0.4-0.2,0.7-0.5,1c-0.3,0.3-0.7,0.4-1.1,0.4c-0.4,0-0.8-0.1-1.1-0.4C478.5,559.7,478.3,559.4,478.3,559z"/>
	</g>
	<g>
		<path d="M146.8,446.7l14-1l27.2,69.1l-11.6,5l-7.7-20h-28.4l-7.5,20.5l-11.6-5L146.8,446.7z M144.7,487.2h19l-9.7-25.4
			L144.7,487.2z"/>
		<path d="M193,520.4V509l27.4-29.4h-26.9v-11.8h44.3v11.8L209,509h28.6v11.4H193z"/>
		<path class="st0" d="M290.9,445.9v12.7h-18.6l-0.1,61.3h-12.5v-61.3h-17.2v-12.7H290.9z"/>
		<path class="st0" d="M322.6,485.7c-0.8-1.4-1.7-2.6-2.9-3.6c-1.2-1-2.6-1.6-4.2-1.7c-3.1-0.4-6,0.3-8.8,1.9
			c-2.8,1.6-4.9,3.9-6.4,6.9v31.2h-12.7v-51.8h12.7v3.8c1.8-1.1,3.9-2.1,6.2-3c2.3-1,4.9-1.5,7.7-1.6c2.4-0.1,4.6,0.2,6.5,0.7
			c1.9,0.5,3.7,1.3,5.3,2.2c1.6,1,3,2.1,4.4,3.4c1.3,1.3,2.6,2.8,3.8,4.4L322.6,485.7z"/>
		<g>
			<path class="st0" d="M389,492.6c-3.7,2.3-7.5,4-11.4,5.2c-3.9,1.2-7.8,1.9-11.6,2.1c-3.8,0.2-7.4-0.2-10.8-1.1
				c-3.4-0.9-6.4-2.3-9-4.4c-2.6-2-4.7-4.7-6.2-7.8c-1.6-3.2-2.4-6.9-2.4-11.3c-0.1-3.2,0.3-6.5,1.2-9.8c0.9-3.3,2.3-6.3,4.2-9
				c1.9-2.7,4.3-5,7.3-6.9c3-1.9,6.5-3.1,10.5-3.6c2.8-0.4,6-0.2,9.4,0.4c3.5,0.6,6.6,2.1,9.4,4.3c2.8,2.3,5.1,5.5,6.7,9.7
				c1.7,4.2,2.1,9.7,1.4,16.5l-37.5-0.1c0.2,2.5,1.3,4.7,3.3,6.6c2,1.9,4.6,3.1,7.8,3.8c3.2,0.6,6.8,0.5,10.8-0.3
				c4-0.8,8.1-2.7,12.4-5.7L389,492.6z M375.2,465.9c-0.3-2.7-1.4-4.8-3.4-6.2c-2-1.4-4.2-2.1-6.7-2.2c-2.5,0-4.9,0.6-7.3,2
				c-2.4,1.4-4.2,3.5-5.3,6.3L375.2,465.9z"/>
			<path class="st0" d="M364.1,500.5c-3.1,0-6.2-0.4-9.1-1.1c-3.5-0.9-6.6-2.4-9.2-4.5c-2.7-2.1-4.8-4.8-6.4-8
				c-1.6-3.2-2.4-7.1-2.5-11.5c-0.1-3.3,0.3-6.6,1.2-9.9c0.9-3.3,2.3-6.4,4.3-9.1c1.9-2.8,4.4-5.1,7.4-7.1c3-1.9,6.6-3.2,10.7-3.7
				c2.9-0.4,6.1-0.2,9.6,0.4c3.5,0.6,6.8,2.1,9.6,4.4c2.9,2.3,5.2,5.6,6.9,9.9c1.7,4.3,2.2,9.9,1.5,16.7l0,0.4l-37.4-0.1
				c0.3,2.2,1.4,4.1,3.1,5.7c1.9,1.8,4.5,3,7.5,3.6c3.1,0.6,6.7,0.5,10.6-0.3c3.9-0.8,8-2.7,12.2-5.6l0.5-0.4l5.1,12.3l-0.4,0.2
				c-3.7,2.3-7.6,4-11.5,5.3c-4,1.2-7.9,2-11.7,2.1C365.4,500.5,364.8,500.5,364.1,500.5z M363.8,446.4c-1.1,0-2.1,0.1-3.1,0.2
				c-3.9,0.5-7.4,1.7-10.3,3.5c-2.9,1.9-5.3,4.1-7.2,6.8c-1.9,2.7-3.2,5.6-4.1,8.8c-0.9,3.2-1.3,6.5-1.2,9.6c0.1,4.3,0.9,8,2.4,11.1
				c1.5,3.1,3.6,5.7,6.1,7.7c2.5,2,5.5,3.4,8.9,4.3c3.4,0.9,6.9,1.2,10.6,1c3.7-0.2,7.6-0.9,11.5-2.1c3.8-1.2,7.4-2.8,10.9-5
				l-4.3-10.3c-4.1,2.8-8.1,4.6-12,5.4c-4.1,0.9-7.8,1-11,0.3c-3.3-0.7-5.9-2-8-3.9c-2.1-1.9-3.3-4.3-3.5-6.9l0-0.5l37.6,0.1
				c0.6-6.5,0.1-11.8-1.4-15.8c-1.6-4.1-3.8-7.3-6.6-9.5c-2.7-2.2-5.8-3.6-9.2-4.2C367.8,446.6,365.7,446.4,363.8,446.4z
				 M375.8,466.4l-23.9-0.1l0.3-0.7c1.2-2.9,3-5.1,5.5-6.5c2.5-1.4,5-2.1,7.6-2.1c2.6,0,4.9,0.8,6.9,2.3c2.1,1.5,3.3,3.7,3.6,6.6
				L375.8,466.4z M353.4,465.3l21.3,0.1c-0.4-2.3-1.4-4.1-3.1-5.3c-1.9-1.3-4-2-6.4-2.1c-2.4,0-4.7,0.6-7,1.9
				C356.1,461.1,354.5,462.9,353.4,465.3z"/>
		</g>
		<g>
			<rect x="291.9" y="486.6" class="st1" width="168.1" height="3.3"/>
			<rect x="420.2" y="472.3" transform="matrix(0.2107 -0.9776 0.9776 0.2107 -100.5721 823.9927)" width="79.6" height="4"/>
			<path class="st0" d="M427.9,477.1l-24.9,7.3l-3.5-12.2l71.5-20.9l3.5,12.2l-26.5,7.8l34.8,22.1l-7.5,10.4l-35.2-22.3L423,518.8
				l-12-5.1L427.9,477.1z"/>
			<path class="st2" d="M447.4,457.3"/>
			<path d="M445.8,452.5c-1.5,0-2.9-0.4-4.2-1.1c-1.9-1.1-3.3-2.9-3.9-5.1c-1.2-4.5,1.5-9,6-10.2c2.2-0.6,4.4-0.3,6.3,0.9
				c1.9,1.1,3.3,2.9,3.9,5.1s0.3,4.4-0.9,6.3c-1.1,1.9-2.9,3.3-5.1,3.9l0,0C447.2,452.4,446.5,452.5,445.8,452.5z M445.8,443.7
				C445.8,443.7,445.7,443.7,445.8,443.7c-0.3,0.1-0.4,0.3-0.4,0.5c0,0.1,0.1,0.2,0.2,0.2c0.1,0.1,0.2,0.1,0.3,0l0,0
				c0.1,0,0.2-0.1,0.2-0.2c0.1-0.1,0.1-0.2,0-0.3C446.1,443.8,446,443.7,445.8,443.7z"/>
		</g>
	</g>
	<g>
		<g>
			<path id="XMLID_14_" class="st3" d="M165,394.9c-6.7,0-11.7-6.8-9.5-13.2c0.3-0.8,0.7-1.6,1.1-2.4c1.4-2.6,2.8-5.3,4.2-7.9
				c2.6-4.9,5.2-9.8,7.8-14.8c3.5-6.7,7.1-13.4,10.6-20.1c4.2-8,8.5-16,12.7-24c4.6-8.8,9.3-17.5,13.9-26.3
				c4.8-9.1,9.6-18.1,14.3-27.2c4.7-8.8,9.3-17.7,14-26.5c4.3-8.1,8.6-16.3,12.9-24.4c2.2-4.2,4.4-8.3,6.6-12.5
				c1.5-2.8,2.9-5.6,4.4-8.4c5.5-10.5,8.3-15.7,8.3-15.7c1.6-3,3.2-6.1,4.8-9.1c2.5-4.8,5.9-9.9,11-12.1c1.3-0.5,2.8-0.9,4.2-0.5
				c1.3,0.4,2.3,1.4,3.1,2.4c2.1,2.5,3.5,5.5,4.6,8.5c1.3,3.5,1.6,7.3,2.2,11c0.5,3.2,0.9,6.4,1.8,9.5c0.7,2.3,1.6,5.4,3.8,6.7
				c2.1,1.3,5.2,0.7,7.1-0.8c2.1-1.6,3.5-4,4.9-6.2c1.2-2,2.3-3.9,3.5-5.9c1.1-1.9,2.2-3.9,4-5.2c2.6-1.8,5.9-2.7,9-2.6
				c3.6,0.1,7.1,1.6,8.8,5c0.3,0.7,0.7,1.4,1,2.2c1.7,3.5,3.4,7,5.1,10.6c2.8,5.8,5.6,11.6,8.4,17.4c3.6,7.5,7.2,15,10.8,22.5
				c4.1,8.6,8.3,17.3,12.4,25.9c4.4,9.2,8.8,18.4,13.2,27.5c4.4,9.1,8.8,18.3,13.1,27.4c4.1,8.5,8.2,17,12.2,25.5
				c3.5,7.3,7,14.6,10.5,21.9c2.6,5.5,5.3,11,7.9,16.6c1.5,3.1,3,6.2,4.5,9.4c0.2,0.5,0.5,1,0.7,1.5c2.5,5.4-0.2,12.1-6,13.9
				c-2.2,0.7-4.7,0.5-6.9,0.5c-4,0-8,0-12.1,0c-6.3,0-12.5,0-18.8,0c-8,0-16,0-24,0c-9.2,0-18.5,0-27.7,0c-10,0-20,0-30,0
				c-10.2,0-20.5,0-30.7,0c-10,0-20,0-30,0c-9.3,0-18.6,0-27.8,0c-8.1,0-16.2,0-24.2,0c-6.3,0-12.7,0-19,0c-4.1,0-8.2,0-12.3,0
				C167.9,394.9,166.4,394.9,165,394.9z"/>
			<path d="M428.7,399c-0.5,0-1,0-1.5,0c-0.4,0-0.9,0-1.3,0H165c-4.5,0-8.7-2.2-11.4-5.9c-2.6-3.7-3.3-8.4-1.9-12.6
				c0.4-1.1,0.8-2,1.3-2.7l101.5-192.3c8.3-15.7,8.3-15.7,8.3-15.8l4.8-9.1c2.7-5,6.5-11.2,13-13.9c2.5-1.1,4.9-1.3,7-0.6
				c2.3,0.7,3.9,2.4,4.9,3.6c2.1,2.5,3.8,5.7,5.3,9.7c1.1,3,1.5,6.1,2,9.1c0.1,0.9,0.2,1.8,0.4,2.6c0.1,0.8,0.2,1.5,0.4,2.3
				c0.4,2.4,0.7,4.7,1.3,6.8c0.3,1.1,1.1,3.8,2,4.4c0.4,0.2,1.7,0.1,2.6-0.5c1.5-1.2,2.7-3.2,3.9-5.1l3.9-6.6
				c1.1-1.9,2.4-4.1,4.7-5.8c3.2-2.3,7.3-3.4,11.4-3.3c5.6,0.2,10.1,2.8,12.3,7.2c0.2,0.5,0.5,1,0.7,1.5L442,377.9
				c0.2,0.3,0.3,0.7,0.5,1c1.7,3.7,1.8,8,0.1,11.7c-1.6,3.7-4.7,6.5-8.5,7.6C432.2,398.9,430.4,399,428.7,399z M285,153.7
				c-0.2,0-0.7,0.1-1.3,0.3c-4.1,1.7-7,6.4-9,10.3l-4.8,9.1c-0.1,0.1-2.8,5.4-8.3,15.7L160.1,381.4c-0.3,0.6-0.6,1.1-0.8,1.6
				c-0.6,1.8-0.3,3.7,0.8,5.3c1.2,1.6,2.9,2.6,4.9,2.6h260.9c0.5,0,0.9,0,1.4,0c1.6,0,3.2,0.1,4.3-0.3c1.6-0.5,2.9-1.7,3.6-3.2
				c0.7-1.7,0.7-3.5,0-5.1c-0.1-0.3-0.3-0.6-0.4-0.9l-4.7-9.9l-94-196.1c-0.2-0.5-0.5-0.9-0.7-1.4c-1.1-2.3-3.8-2.7-5.3-2.7
				c-2.4-0.1-4.8,0.6-6.6,1.9c-0.9,0.7-1.6,1.9-2.5,3.3l-3.9,6.7c-1.4,2.3-3.1,5.3-5.9,7.4c-2.9,2.2-7.9,3.3-11.6,1
				c-3.6-2.2-4.8-6.5-5.5-9c-0.7-2.6-1.1-5.3-1.5-7.8c-0.1-0.7-0.2-1.4-0.3-2.2c-0.2-0.9-0.3-1.9-0.4-2.8c-0.4-2.7-0.7-5.2-1.6-7.4
				c-1.2-3.2-2.4-5.6-3.9-7.3c-0.8-1-1.2-1.1-1.2-1.2C285.1,153.7,285.1,153.7,285,153.7z"/>
		</g>
		<g>
			<path class="st4" d="M436.6,390.3c0,3.1-4.5,4.9-6.8,5.9c-6,2.5-12.6,3.9-18.9,5.2c-9.5,1.8-19.2,3.1-28.8,4.1
				c-12.2,1.3-24.5,2.2-36.8,2.8c-14.1,0.7-28.2,1.1-42.3,1.1c-14.5,0.1-29-0.1-43.6-0.7c-12.8-0.5-25.6-1.3-38.4-2.4
				c-10.4-0.9-20.7-2.1-31-3.8c-7.2-1.2-14.5-2.6-21.4-4.9c-2.2-0.8-4.5-1.6-6.5-2.8c-1.3-0.7-2.6-1.6-3.4-3c-1.5-2.7,1.5-4.9,3.5-6
				c4.9-2.8,10.7-4.1,16.1-5.4c8.8-2,17.8-3.3,26.7-4.4c11.7-1.4,23.4-2.4,35.1-3.1c13.7-0.9,27.4-1.3,41.2-1.6
				c14.7-0.2,29.4-0.2,44.1,0.3c13.3,0.4,26.6,1,39.8,2c11,0.8,22,1.9,32.9,3.5c8.1,1.2,16.2,2.5,24,4.7c2.7,0.7,5.4,1.6,8,2.7
				c1.7,0.7,3.5,1.6,4.9,2.9C435.8,388.1,436.6,389.1,436.6,390.3z"/>
			<path d="M297.4,413.4c-13,0-25.8-0.2-38.2-0.7c-13.9-0.5-26.5-1.3-38.6-2.4c-12.1-1.1-22.1-2.3-31.3-3.9
				c-7.2-1.2-14.8-2.6-22.1-5.1c-2.2-0.7-4.8-1.7-7.3-3.1c-1.6-0.9-3.7-2.3-4.9-4.5c-0.8-1.5-3-6.9,5.1-11.4
				c5.5-3.1,12-4.6,17.2-5.8c9.9-2.2,19.7-3.6,27.1-4.5c10.7-1.3,22.3-2.3,35.3-3.2c13.1-0.8,27-1.3,41.3-1.6
				c14.8-0.2,29.7-0.1,44.3,0.3c14.2,0.4,27.3,1.1,40,2c12.4,1,23.3,2.1,33.1,3.5c7.4,1.1,16,2.5,24.5,4.8c3.5,1,6.1,1.8,8.5,2.9
				c1.9,0.8,4.2,1.9,6,3.6c2.4,2.2,3,4.4,3,5.9c0,5.7-6.2,8.3-9.1,9.5l-0.1,0.1c-6.4,2.7-13.3,4.2-19.8,5.4
				c-8.4,1.6-17.7,2.9-29.2,4.2c-11.4,1.2-23.5,2.1-37,2.8c-13.6,0.7-27.9,1.1-42.5,1.1C301.1,413.4,299.2,413.4,297.4,413.4z
				 M162.5,390.3c0.3,0.2,0.7,0.6,1.4,1c1.9,1.1,4,1.9,5.8,2.5c6.7,2.3,14,3.6,20.8,4.8c9.1,1.5,18.8,2.7,30.7,3.8
				c12,1.1,24.5,1.9,38.2,2.4c14,0.5,28.6,0.8,43.4,0.7c14.5-0.1,28.6-0.5,42.2-1.1c13.3-0.7,25.3-1.6,36.6-2.8
				c11.2-1.2,20.3-2.5,28.5-4.1c6.1-1.2,12.5-2.5,18.2-4.9l0.1-0.1c2-0.9,3.3-1.6,4-2.1c0,0,0,0,0,0c-1-0.9-2.4-1.6-3.9-2.2
				c-2.1-0.9-4.4-1.7-7.5-2.5c-8.1-2.2-16.4-3.6-23.6-4.6c-9.7-1.4-20.4-2.5-32.6-3.5c-12.6-1-25.5-1.6-39.6-2
				c-14.4-0.4-29.2-0.5-43.9-0.3c-14.2,0.2-28,0.7-41,1.6c-12.9,0.8-24.3,1.8-34.9,3.1c-7.3,0.9-16.8,2.2-26.3,4.3
				c-4.9,1.1-10.5,2.4-15,4.9C163.3,389.7,162.8,390,162.5,390.3z"/>
		</g>
		<g>
			<path class="st5" d="M254.3,196.4c-5.4,13.7,3.5,22,2.6,43.2c-0.6,14-2.6,17.5-3.2,32.5c-0.2,5.7-0.1,14,6.4,16.4
				c2.5,0.9,4.3-0.9,5.6-2.8c2.6-3.7,4.2-8,6-12.1c2.8-6.6,5.6-13.2,8.6-19.7c1.6-3.4,2.8-7,4.2-10.5c0.9-2.4,1.8-5.2,3.7-7.1
				c1.1-1.1,2.6-1.5,3.9-0.4c1.7,1.5,2.9,3.9,4.2,5.7c2,2.9,4.1,5.8,6.3,8.5c1.2,1.5,2.5,3.1,4.2,4.1c1.6,1,3.5,0.8,5.2,0.1
				c2.3-0.9,3.6-2.9,4.3-5.2c0.8-2.9,0.8-5.9,0.9-8.8c0.1-2.5,0.1-5.1,1.3-7.3c1-2,3-3.5,5.2-2.4c2,1,2.6,3.8,3.1,5.8
				c0.9,3.2,2.1,6.3,4.3,8.8c1.4,1.6,3,2.5,5.1,2.3c4.1-0.5,5.7-6,6.6-9.4c1.1-4.5,1.7-9.1,2.1-13.6c0.5-5,0.9-10.1,1.3-15.1
				c0.7-8.9,1.2-8.8,1.2-11.5c0-6.7-4.4-17.6-4.4-17.6c-2.4-5.9-3.7-8.9-5.5-10.3c-0.7-0.5-4.2-3-9.1-2.6c-4.9,0.4-8,3.6-9.1,4.7
				c-2.3,2.4-1.6,3.1-5.4,9c-3.8,6-5.7,7-7.3,7.4c-0.4,0.1-2.7,0.7-4.7-0.4c-2.2-1.2-2.9-3.7-3.2-4.9c-2-7.5-2.1-12.9-3.4-18.5
				c-0.8-3.5-2.8-12.1-8.7-14.7c-0.7-0.3-2.4-1-4.3-0.6c-2.9,0.6-4.5,3.5-5.5,5.3c-3.3,5.7-7,11.2-10.1,17
				c-4.5,8.6-4.4,8.1-6.2,11.7C257,189.7,254.8,195,254.3,196.4z"/>
			<path d="M261.4,292.7c-1,0-2-0.2-2.7-0.5c-9.7-3.5-9.3-15.7-9.1-20.3c0.3-7.9,1-12.8,1.7-17.4c0.6-4.4,1.2-8.5,1.5-15.1
				c0.4-9.1-1.1-15.7-2.4-21.5c-1.7-7.4-3.3-14.3,0.1-23l0,0c0.6-1.6,2.9-7.1,6.1-13.5c1-2,1.4-2.8,2.4-4.6c0.7-1.4,1.8-3.4,3.8-7.2
				c1.9-3.5,4-7,6-10.2c1.4-2.3,2.8-4.6,4.2-6.9c1.2-2.2,3.5-6.1,8.1-7.2c3.3-0.7,6,0.5,6.8,0.9c7.7,3.4,10.1,13.6,11,17.5
				c0.6,2.5,0.9,4.9,1.3,7.5c0.5,3.3,1,6.8,2.1,10.9c0.2,0.6,0.6,2.1,1.3,2.5c0.2,0.1,0.7,0.3,1.8,0c0.9-0.2,2.7-2.3,4.9-5.7
				c1.6-2.6,2.3-4,2.9-5.2c0.7-1.5,1.3-2.7,3-4.4c1.3-1.3,5.2-5.3,11.6-5.9c6.2-0.6,10.6,2.4,11.9,3.4c2.8,2.1,4.2,5.6,6.8,11.9
				c0.5,1.2,4.7,11.9,4.7,19.1c0,1.5-0.1,2.4-0.3,3.6c-0.2,1.4-0.5,3.4-0.9,8.2l-0.2,2.6c-0.3,4.1-0.7,8.4-1.1,12.6
				c-0.5,4.5-1,9.4-2.2,14.2c-0.8,3.2-2.9,11.6-10,12.4c-3.3,0.4-6.1-0.8-8.6-3.6c-2.7-3.1-4-6.8-5.1-10.3c-0.1-0.3-0.2-0.5-0.2-0.8
				c-0.2-0.6-0.4-1.4-0.7-2c0,0,0,0.1,0,0.1c-0.6,1.3-0.7,3.1-0.8,5.1l0,0.7c0,0.6,0,1.1-0.1,1.7c-0.1,2.6-0.2,5.3-1,8.1
				c-1.4,4.9-4.4,7-6.7,7.9c-4.1,1.5-7,0.6-8.7-0.4c-2.2-1.4-3.8-3.3-5.1-4.9c-2-2.5-4.1-5.3-6.5-8.9c-0.4-0.6-0.8-1.2-1.2-1.8
				c-0.5-0.7-0.9-1.5-1.4-2.1c-0.7,1.1-1.2,2.5-1.8,4l-0.3,0.9c-0.3,0.8-0.6,1.6-0.9,2.5c-1,2.7-2.1,5.5-3.3,8.2
				c-3,6.6-5.9,13.3-8.6,19.6c-0.3,0.6-0.5,1.2-0.8,1.8c-1.6,3.7-3.2,7.6-5.6,11.1C266.3,291.7,263.6,292.7,261.4,292.7z M258,197.9
				c-2.5,6.4-1.3,11.4,0.2,18.3c1.4,6,3.1,13.5,2.6,23.6c-0.3,7-1,11.5-1.6,15.8c-0.7,4.7-1.3,9.1-1.6,16.6
				c-0.3,7.6,0.8,11.3,3.7,12.4c0.2-0.1,0.6-0.5,1.1-1.3c1.9-2.8,3.4-6.2,4.8-9.5c0.3-0.6,0.5-1.3,0.8-1.9
				c2.7-6.4,5.6-13.1,8.7-19.8c1.1-2.5,2.1-5,3.1-7.7c0.3-0.8,0.6-1.7,1-2.5l0.3-0.8c0.9-2.4,2-5.4,4.2-7.6c2.7-2.8,6.6-3,9.4-0.6
				c1.7,1.5,2.8,3.3,3.9,5c0.3,0.5,0.6,1,1,1.5c2.3,3.4,4.2,6,6.1,8.3c1,1.3,2.1,2.6,3.2,3.2c0.2,0.1,0.8,0.1,1.7-0.2
				c0.3-0.1,1.3-0.5,1.9-2.6c0.5-1.8,0.6-3.9,0.7-6.1c0-0.6,0-1.2,0.1-1.8l0-0.7c0.1-2.5,0.3-5.4,1.6-8.2c1.1-2.3,2.9-3.9,5-4.6
				c1.8-0.6,3.8-0.4,5.6,0.5c3.3,1.7,4.3,5.2,5,7.5c0.1,0.2,0.1,0.5,0.2,0.7c0.9,3.1,1.8,5.5,3.4,7.3c0.9,1,1.3,1,1.6,0.9
				c0.5-0.1,1.8-0.8,3.2-6.4c1.1-4.3,1.6-8.8,2-13.1c0.4-4.1,0.8-8.3,1.1-12.4l0.2-2.6c0.4-5.1,0.8-7.3,1-8.8
				c0.2-1.1,0.2-1.5,0.2-2.4c0-4.8-3-13.2-4.1-16.1c-1.7-4.2-3.2-7.8-4.2-8.6c-0.3-0.2-2.9-2.1-6.3-1.8c-3.5,0.3-5.7,2.6-6.6,3.5
				c-0.8,0.8-0.9,1.1-1.5,2.3c-0.6,1.3-1.5,3-3.4,6c-3.8,5.9-6.4,8.4-9.7,9.2c-3.5,0.8-6,0-7.5-0.8c-3.7-2-4.7-5.9-5.1-7.4
				c-1.2-4.6-1.8-8.5-2.3-11.8c-0.3-2.4-0.7-4.6-1.2-6.8c-0.6-2.8-2.4-10.1-6.5-12c-0.3-0.2-1.1-0.5-1.8-0.4
				c-1.2,0.3-2.2,2.1-2.9,3.3c-1.4,2.5-2.9,4.9-4.3,7.2c-2,3.2-4,6.5-5.7,9.8c-2,3.8-3.1,5.9-3.9,7.3c-0.9,1.7-1.3,2.4-2.2,4.3
				C260.7,191.2,258.6,196.4,258,197.9L258,197.9z"/>
		</g>
		<g>
			<path class="st0" d="M295.9,188.5c1.8,23.6-1.5,41.4-6.1,42.4c-0.5,0.1-1.3,0.6-3,1.8c0,0-2.7,2.5-3.4,3.8
				c-1.5,2.9-3.2,5.4-3.7,9.2c-1,7.7-11.5,32.1-16.6,38c-1.7,2-4.8,1.4-5.6-1.4c-1-3.4,0.2-11.5,0.3-12.6c0.6-11.5,2.7-31.7,0.8-50
				c-0.5-5.4-3.9-10.3-2.5-17.4c0.5-2.9,2-4.2,3.9-9.6c3.9-11,11.6-21.1,16.9-32.3c1-2.1,2-6.6,5.1-7.3c1.7-0.4,3.6,0.4,4.8,1.4
				c2,1.7,5.5,9,5.6,9.8C293.9,174.6,294.3,167.8,295.9,188.5z"/>
			<path class="st0" d="M260.6,285.3c-0.3,0-0.5,0-0.8-0.1c-1.4-0.3-2.4-1.4-2.9-2.9c-0.8-2.9-0.2-8.8,0.1-11.6
				c0.1-0.6,0.1-1,0.1-1.2c0.1-2.3,0.3-5.1,0.5-8c0.8-11.5,1.8-27.4,0.4-41.9c-0.2-1.9-0.7-3.7-1.3-5.6c-1-3.6-2.1-7.3-1.2-12
				c0.3-1.6,0.9-2.7,1.6-4.1c0.7-1.3,1.5-2.9,2.4-5.5c2.3-6.4,5.8-12.4,9.5-18.7c2.6-4.4,5.2-8.9,7.4-13.6c0.2-0.4,0.4-0.9,0.6-1.5
				c0.9-2.3,2.1-5.5,4.8-6.1c2-0.5,4,0.5,5.2,1.5c2.1,1.8,5.7,9.3,5.8,10.1c0.6,3.6,1,5.2,1.4,6.5c0.7,2.5,1.2,4.4,2.2,17.8l0,0
				c1.7,22.6-1.2,41.8-6.5,42.9c-0.4,0.1-1.4,0.7-2.9,1.7c-0.7,0.6-2.7,2.6-3.2,3.6c-0.2,0.4-0.4,0.8-0.6,1.1
				c-1.3,2.4-2.6,4.7-3,7.9c-1,8-11.6,32.3-16.7,38.2C262.7,284.8,261.7,285.3,260.6,285.3z M282.8,153.4c-0.3,0-0.5,0-0.8,0.1
				c-2.2,0.5-3.3,3.4-4.1,5.5c-0.2,0.6-0.4,1.1-0.6,1.5c-2.2,4.7-4.9,9.3-7.4,13.7c-3.7,6.3-7.1,12.2-9.4,18.6
				c-0.9,2.6-1.8,4.3-2.4,5.6c-0.7,1.4-1.2,2.5-1.5,3.9c-0.8,4.5,0.2,8.1,1.2,11.5c0.6,2,1.1,3.8,1.3,5.8
				c1.4,14.7,0.4,30.5-0.4,42.1c-0.2,2.9-0.4,5.7-0.5,8c0,0.2-0.1,0.7-0.1,1.3c-0.3,2.5-1,8.5-0.2,11.2c0.3,1.1,1.1,1.9,2.1,2.2
				c1,0.2,1.9-0.1,2.6-0.9c4.9-5.7,15.5-30,16.5-37.7c0.4-3.4,1.7-5.8,3.1-8.3c0.2-0.4,0.4-0.7,0.6-1.1c0.7-1.3,3.4-3.8,3.5-4
				c1.9-1.3,2.7-1.8,3.3-1.9c4.2-0.9,7.5-18.2,5.7-41.8l0,0c-1-13.3-1.5-15.1-2.2-17.6c-0.4-1.4-0.8-2.9-1.4-6.6
				c-0.1-0.7-3.5-7.9-5.4-9.5C285.4,154,284.1,153.4,282.8,153.4z"/>
		</g>
		<g>
			<path class="st6" d="M248,328.1c5.7-22.8,14.7-30.8,10-35.5c-1.4-1.4-2.5-1.9-4.1-4c-4.3-5.6-4.7-12.6-3.3-26.7
				c1.3-13.4,2.1-12.8,2.7-21.2c0.8-12.2-1.2-28-4.1-28.4c-1-0.1-1.4,3.2-3.9,7.5c-2.7,4.6-4.1,6.9-5.7,11
				c-6.1,15.6-79.8,142.7-79.7,151.5c0,0.8,1.3-0.4,7.4-2.6c0,0,7.5-2.7,19.8-5.2c20.5-4.1,28.8-3.8,44.3-6.6
				C240.6,366.2,240.8,354.5,248,328.1z"/>
			<path class="st6" d="M160,383c-0.1,0-0.2,0-0.3-0.1c-0.2-0.1-0.3-0.3-0.3-0.5c-0.1-5.2,25.1-50.7,47.2-90.8
				c15.4-27.9,30-54.3,32.5-60.8c1.6-4.1,3-6.4,5.7-11.1c1.2-2,1.9-3.8,2.4-5.1c0.7-1.7,1-2.7,1.9-2.5c3.5,0.5,5.1,17.8,4.4,28.8
				c-0.3,4.1-0.6,6-1,8.5c-0.4,2.6-1,5.8-1.6,12.7c-1.3,13.4-1.1,20.7,3.3,26.4c1,1.3,1.8,2,2.6,2.7c0.4,0.4,0.9,0.8,1.4,1.3
				c2.8,2.8,1.2,6.5-1.8,13.3c-2.3,5.3-5.5,12.5-8,22.6l0,0c-1.7,6-2.9,11.3-4,15.9c-3.7,15.2-5.6,22.8-12.9,24.2
				c-6.7,1.2-12,1.9-17.7,2.5c-7.4,0.9-15,1.8-26.6,4.1c-12.1,2.4-19.6,5.2-19.7,5.2c-2.7,1-4.4,1.7-5.6,2.3
				C160.8,382.8,160.3,383,160,383z M249.1,212.7c-0.2,0-0.7,1.1-1.1,2.1c-0.5,1.3-1.2,3.2-2.5,5.2c-2.7,4.6-4.1,6.9-5.6,11
				c-2.6,6.5-16.5,31.7-32.6,60.9c-21.9,39.7-46.7,84.6-47.1,90.3c0.3-0.1,0.8-0.3,1.3-0.5c1.2-0.5,2.9-1.3,5.6-2.3
				c0.1,0,7.7-2.8,19.8-5.2c11.7-2.3,19.3-3.3,26.7-4.1c5.6-0.7,10.9-1.3,17.6-2.5c6.9-1.3,8.6-8.3,12.3-23.6
				c1.1-4.6,2.4-9.8,4.1-15.9c2.5-10.2,5.7-17.4,8.1-22.7c2.8-6.4,4.4-10,2-12.4c-0.5-0.5-0.9-0.9-1.4-1.2c-0.8-0.7-1.7-1.4-2.7-2.8
				c-4.5-5.9-4.7-13.4-3.4-27c0.7-6.9,1.2-10.2,1.7-12.8c0.4-2.4,0.8-4.4,1-8.4C253.7,227.2,251.4,213,249.1,212.7
				C249.1,212.7,249.1,212.7,249.1,212.7z"/>
		</g>
		<g>
			<path class="st7" d="M245,377c0,0-24.3,1.1-46.2,4.2c-0.7,0.1-1.4,0.2-1.4,0.2c-0.6,0.1-1.3,0.2-2.1,0.3
				c-16.7,2.7-32.6,5.2-32.5,8.4c0.1,4.5,31.1,9.7,57,11.5c29.4,2,23.9,1.1,54.1,3.3c8.2,0.6,19.7,0,41.5,0.4
				c7.2,0.1,14,0.5,18.1-1.4c10.4-5.1,11.6-14.8,8.1-18.8c-2-2.4-7.2-7.1-13.3-8.1C311.3,374.2,299.6,374.7,245,377z"/>
			<path class="st7" d="M322.7,405.9c-1.6,0-3.3,0-5-0.1c-0.8,0-1.5,0-2.3,0c-10.3-0.2-18.3-0.2-24.7-0.1c-7.3,0-12.5,0-16.8-0.3
				c-15.4-1.1-21.4-1.4-27.7-1.7c-5.9-0.3-12-0.6-26.3-1.6c-24-1.7-57.3-6.7-57.3-11.9c0-3.3,12.4-5.5,32.8-8.8
				c0.8-0.1,1.5-0.2,2.1-0.3l1.4-0.2c21.7-3.1,46-4.2,46.3-4.2l0,0.4l0-0.4c53.5-2.3,66.2-2.9,83.4-0.1c7.3,1.2,12.9,7.5,13.5,8.3
				c1.6,1.9,2.2,4.9,1.6,8c-1,4.7-4.5,8.8-9.8,11.4C331,405.6,327.1,405.9,322.7,405.9z M298,404.8c5,0,10.7,0,17.5,0.2
				c0.8,0,1.6,0,2.3,0c6.2,0.1,12.1,0.3,15.6-1.5c5.1-2.5,8.5-6.5,9.4-10.9c0.6-2.9,0.1-5.6-1.4-7.4c-0.6-0.7-6-6.8-13.1-8
				c-17.1-2.8-29.8-2.2-83.2,0.1l0-0.4l0,0.4c-0.2,0-24.5,1.1-46.2,4.2l-1.4,0.2c-0.6,0.1-1.3,0.2-2.1,0.3
				c-15.1,2.4-32.2,5.2-32.2,8c0.1,3.7,27.6,9.1,56.7,11.1c14.4,1,20.4,1.3,26.3,1.6c6.3,0.3,12.3,0.6,27.8,1.7
				c4.3,0.3,9.5,0.3,16.8,0.3C293,404.8,295.4,404.8,298,404.8z"/>
		</g>
		<path class="st8" d="M245.6,377"/>
		<path d="M281.4,117.7c-8.2,2.4-17.6-0.5-21.4-8.6c-3.8-8.1,0.3-17.3,7.3-22.2c3.9-2.7,0.2-9.2-3.8-6.5
			c-10,6.9-15.6,19.5-10.6,31.1c5.1,11.7,18.5,16.9,30.4,13.3C288,123.6,286,116.3,281.4,117.7L281.4,117.7z"/>
		<path d="M266.1,78.9c-11.1,9.2-28,7.8-38.2-2.1c-10.4-10.1-11.3-26.1-3.7-38.1c2.4-3.8-3.6-7.3-6-3.5c-9.6,15-7.7,35.5,5.8,47.5
			c13.3,11.9,33.3,12.5,47.1,1.2C274.5,81,269.6,76,266.1,78.9L266.1,78.9z"/>
		<path class="st9" d="M318.5,84.6c16-2,29.8,9.2,32.8,24.8c3.1,16.5-6.6,32.9-21.5,39.8c-4.4,2-0.6,8.5,3.8,6.5
			c18-8.3,28.8-28.7,24.9-48.3c-3.6-18.5-20.9-32.7-40-30.3C313.8,77.7,313.7,85.2,318.5,84.6L318.5,84.6z"/>
		<path d="M324.8,60.8c4.1,0.7,7.9,3.2,8.6,7.6c0.8,5.3-3.9,8.2-8.5,8.9c-4.1,0.6-2.4,6.9,1.7,6.3c7.4-1.1,13.9-7,13.4-15
			c-0.5-7.3-6.5-12.8-13.4-14C322.4,53.8,320.7,60.1,324.8,60.8L324.8,60.8z"/>
		<path d="M329.6,43c3,1,5.6,3.9,4.9,7.3c-0.6,3.1-3.8,4.6-6.7,4.7c-3.2,0.1-3.2,5.1,0,5c5.4-0.1,10.7-3.4,11.7-9
			c1-5.9-3.1-11-8.6-12.8C327.9,37.2,326.6,42.1,329.6,43L329.6,43z"/>
		<path d="M231.9,66.9c-6.2-3.1-7-11.3-2.2-16c2.3-2.3-1.3-5.8-3.5-3.5c-6.9,6.9-5.8,19.3,3.2,23.9
			C232.3,72.7,234.8,68.3,231.9,66.9L231.9,66.9z"/>
	</g>
	<path d="M274.2,225.3c-0.3,0.6-0.7,1.1-1.3,1.5c-0.6,0.5-1.2,0.8-1.6,0.8c-0.5,0.1-0.3,0.4-0.6-0.3c-0.4-0.7-0.7-1.6-0.6-2.4
		c0.2-3.2-4.8-3.2-5,0c-0.2,3.4,2,7.7,5.8,7.7c2.7,0,6.4-2,7.6-4.8c0.6-1.2,0.4-2.7-0.9-3.4C276.5,223.8,274.7,224.1,274.2,225.3
		L274.2,225.3z"/>
</g>
</svg>
