<?xml version="1.0" encoding="utf-8"?>
<!-- Generator: Adobe Illustrator 22.1.0, SVG Export Plug-In . SVG Version: 6.00 Build 0)  -->
<svg version="1.1" id="Calque_1" xmlns="http://www.w3.org/2000/svg" xmlns:xlink="http://www.w3.org/1999/xlink" x="0px" y="0px"
	 viewBox="0 0 595.3 595.3" style="enable-background:new 0 0 595.3 595.3;" xml:space="preserve">
<style type="text/css">
	.st0{fill:none;stroke:#4197CB;stroke-width:8;stroke-miterlimit:10;}
	.st1{fill:#4197CB;stroke:#4197CB;stroke-width:8;stroke-miterlimit:10;}
	.st2{fill:#3197D4;stroke:#4197CB;stroke-width:0.75;stroke-miterlimit:10;}
	.st3{fill:#4197CB;}
</style>
<g>
	<path id="XMLID_19_" class="st0" d="M165.5,470.1c-6.7,0-11.7-6.8-9.5-13.2c0.3-0.8,0.7-1.6,1.1-2.4c1.4-2.6,2.8-5.3,4.2-7.9
		c2.6-4.9,5.2-9.8,7.8-14.8c3.5-6.7,7.1-13.4,10.6-20.1c4.2-8,8.5-16,12.7-24c4.6-8.8,9.3-17.5,13.9-26.3
		c4.8-9.1,9.6-18.1,14.3-27.2c4.7-8.8,9.3-17.7,14-26.5c4.3-8.1,8.6-16.3,12.9-24.4c2.2-4.2,4.4-8.3,6.6-12.5
		c1.5-2.8,2.9-5.6,4.4-8.4c5.5-10.5,8.3-15.7,8.3-15.7c1.6-3,3.2-6.1,4.8-9.1c2.5-4.8,5.9-9.9,11-12.1c1.3-0.5,2.8-0.9,4.2-0.5
		c1.3,0.4,2.3,1.4,3.1,2.4c2.1,2.5,3.5,5.5,4.6,8.5c1.3,3.5,1.6,7.3,2.2,11c0.5,3.2,0.9,6.4,1.8,9.5c0.7,2.3,1.6,5.4,3.8,6.7
		c2.1,1.3,5.2,0.7,7.1-0.8c2.1-1.6,3.5-4,4.9-6.2c1.2-2,2.3-3.9,3.5-5.9c1.1-1.9,2.2-3.9,4-5.2c2.6-1.8,5.9-2.7,9-2.6
		c3.6,0.1,7.1,1.6,8.8,5c0.3,0.7,0.7,1.4,1,2.2c1.7,3.5,3.4,7,5.1,10.6c2.8,5.8,5.6,11.6,8.4,17.4c3.6,7.5,7.2,15,10.8,22.5
		c4.1,8.6,8.3,17.3,12.4,25.9c4.4,9.2,8.8,18.4,13.2,27.5c4.4,9.1,8.8,18.3,13.1,27.4c4.1,8.5,8.2,17,12.2,25.5
		c3.5,7.3,7,14.6,10.5,21.9c2.6,5.5,5.3,11,7.9,16.6c1.5,3.1,3,6.2,4.5,9.4c0.2,0.5,0.5,1,0.7,1.5c2.5,5.4-0.2,12.1-6,13.9
		c-2.2,0.7-4.7,0.5-6.9,0.5c-4,0-8,0-12.1,0c-6.3,0-12.5,0-18.8,0c-8,0-16,0-24,0c-9.2,0-18.5,0-27.7,0c-10,0-20,0-30,0
		c-10.2,0-20.5,0-30.7,0c-10,0-20,0-30,0c-9.3,0-18.6,0-27.8,0c-8.1,0-16.2,0-24.2,0c-6.3,0-12.7,0-19,0c-4.1,0-8.2,0-12.3,0
		C168.3,470.1,166.9,470.1,165.5,470.1z"/>
	<path class="st1" d="M437.1,465.5c0,3.1-4.5,4.9-6.8,5.9c-6,2.5-12.6,3.9-18.9,5.2c-9.5,1.8-19.2,3.1-28.8,4.1
		c-12.2,1.3-24.5,2.2-36.8,2.8c-14.1,0.7-28.2,1.1-42.3,1.1c-14.5,0.1-29-0.1-43.6-0.7c-12.8-0.5-25.6-1.3-38.4-2.4
		c-10.4-0.9-20.7-2.1-31-3.8c-7.2-1.2-14.5-2.6-21.4-4.9c-2.2-0.8-4.5-1.6-6.5-2.8c-1.3-0.7-2.6-1.6-3.4-3c-1.5-2.7,1.5-4.9,3.5-6
		c4.9-2.8,10.7-4.1,16.1-5.4c8.8-2,17.8-3.3,26.7-4.4c11.7-1.4,23.4-2.4,35.1-3.1c13.7-0.9,27.4-1.3,41.2-1.6
		c14.7-0.2,29.4-0.2,44.1,0.3c13.3,0.4,26.6,1,39.8,2c11,0.8,22,1.9,32.9,3.5c8.1,1.2,16.2,2.5,24,4.7c2.7,0.7,5.4,1.6,8,2.7
		c1.7,0.7,3.5,1.6,4.9,2.9C436.3,463.3,437.1,464.3,437.1,465.5z"/>
	<path class="st2" d="M246.1,452.2"/>
	<g>
		<g>
			<path class="st3" d="M281.8,192.9c-8.2,2.4-17.6-0.5-21.4-8.6c-3.8-8.1,0.3-17.3,7.3-22.2c3.9-2.7,0.2-9.2-3.8-6.5
				c-10,6.9-15.6,19.5-10.6,31.1c5.1,11.7,18.5,16.9,30.4,13.3C288.5,198.8,286.5,191.5,281.8,192.9L281.8,192.9z"/>
		</g>
	</g>
	<g>
		<g>
			<path class="st3" d="M266.6,154.1c-11.1,9.2-28,7.8-38.2-2.1c-10.4-10.1-11.3-26.1-3.7-38.1c2.4-3.8-3.6-7.3-6-3.5
				c-9.6,15-7.7,35.5,5.8,47.5c13.3,11.9,33.3,12.5,47.1,1.2C275,156.1,270,151.2,266.6,154.1L266.6,154.1z"/>
		</g>
	</g>
	<g>
		<g>
			<path class="st3" d="M325.3,136c4.1,0.7,7.9,3.2,8.6,7.6c0.8,5.3-3.9,8.2-8.5,8.9c-4.1,0.6-2.4,6.9,1.7,6.3
				c7.4-1.1,13.9-7,13.4-15c-0.5-7.3-6.5-12.8-13.4-14C322.9,129,321.2,135.3,325.3,136L325.3,136z"/>
		</g>
	</g>
	<g>
		<g>
			<path class="st3" d="M330.1,118.2c3,1,5.6,3.9,4.9,7.3c-0.6,3.1-3.8,4.6-6.7,4.7c-3.2,0.1-3.2,5.1,0,5c5.4-0.1,10.7-3.4,11.7-9
				c1-5.9-3.1-11-8.6-12.8C328.4,112.4,327.1,117.2,330.1,118.2L330.1,118.2z"/>
		</g>
	</g>
	<g>
		<g>
			<path class="st3" d="M232.4,142.1c-6.2-3.1-7-11.3-2.2-16c2.3-2.3-1.3-5.8-3.5-3.5c-6.9,6.9-5.8,19.3,3.2,23.9
				C232.8,147.8,235.3,143.5,232.4,142.1L232.4,142.1z"/>
		</g>
	</g>
</g>
<g>
	<g>
		<path class="st3" d="M323.2,311.8h-44.9c-20.7,0-37.4,16.8-37.4,37.4v44.9c0,20.7,16.8,37.4,37.4,37.4h44.9
			c20.7,0,37.4-16.8,37.4-37.4v-44.9C360.6,328.6,343.9,311.8,323.2,311.8z M349.4,394.2c0,14.5-11.8,26.2-26.2,26.2h-44.9
			c-14.5,0-26.2-11.8-26.2-26.2v-44.9c0-14.5,11.8-26.2,26.2-26.2h44.9c14.5,0,26.2,11.8,26.2,26.2V394.2z"/>
	</g>
</g>
<g>
	<g>
		<path class="st3" d="M300.7,341.8c-16.5,0-30,13.4-30,30c0,16.5,13.4,30,30,30c16.5,0,30-13.4,30-30
			C330.7,355.2,317.3,341.8,300.7,341.8z M300.7,390.5c-10.3,0-18.7-8.4-18.7-18.7c0-10.3,8.4-18.7,18.7-18.7
			c10.3,0,18.7,8.4,18.7,18.7C319.5,382.1,311,390.5,300.7,390.5z"/>
	</g>
</g>
<g>
	<g>
		<circle class="st3" cx="332.9" cy="339.6" r="4"/>
	</g>
</g>
</svg>
